<svg width="1243" height="1007" viewBox="0 0 1243 1007" fill="none" xmlns="http://www.w3.org/2000/svg">
<path d="M106.6 106.66V130.58H170.54V106.66H106.6ZM106.14 193.6V220.28H176.52V193.6H106.14ZM146.62 327H0.800001V4.99998H140.64C249.2 4.99998 274.96 22.02 274.96 93.78V107.12C274.96 130.58 264.38 149.44 248.28 154.96C268.52 160.94 280.94 181.18 280.94 208.32V238.22C280.94 309.98 255.18 327 146.62 327ZM386.877 153.12V179.8H493.597V153.12H386.877ZM283.837 207.4L284.297 121.84C284.757 49.62 319.257 0.399982 440.237 0.399982C561.217 0.399982 596.637 49.62 596.637 121.84V207.4C596.637 279.62 574.097 330.68 440.237 330.68C306.377 330.68 283.377 279.62 283.837 207.4ZM605.7 327V4.99998H682.52L768.54 80.44V4.99998H874.34V327H797.52L711.5 246.96V327H605.7ZM887.935 327V4.99998H998.335L997.415 82.74H1030.54L1049.86 4.99998H1157.96L1119.32 162.78L1163.02 327H1054.92L1036.52 258.46H994.655L993.735 327H887.935ZM1158.33 313.2V249.72H1242.51V340.34C1242.51 355.98 1226.41 363.34 1195.13 363.34C1177.65 363.34 1167.53 361.04 1158.79 355.06V325.62H1210.31V313.2H1158.33ZM0.800001 667V345H77.62L163.64 420.44V345H269.44V667H192.62L106.6 586.96V667H0.800001ZM381.935 493.12V519.8H488.655V493.12H381.935ZM278.895 547.4L279.355 461.84C279.815 389.62 314.315 340.4 435.295 340.4C556.275 340.4 591.695 389.62 591.695 461.84V547.4C591.695 619.62 569.155 670.68 435.295 670.68C301.435 670.68 278.435 619.62 278.895 547.4ZM674.359 667V496.8H596.159V345H858.359V496.8H780.159V667H674.359ZM106.6 786.66V810.58H170.54V786.66H106.6ZM106.14 873.6V900.28H176.52V873.6H106.14ZM146.62 1007H0.800001V685H140.64C249.2 685 274.96 702.02 274.96 773.78V787.12C274.96 810.58 264.38 829.44 248.28 834.96C268.52 840.94 280.94 861.18 280.94 888.32V918.22C280.94 989.98 255.18 1007 146.62 1007ZM453.577 819.78H391.477V853.82H453.577V819.78ZM559.377 804.6V1007H453.577V973.42H391.477V1007H285.677V804.6C285.677 715.82 324.317 680.4 422.297 680.4C520.737 680.4 559.377 716.28 559.377 804.6ZM570.661 1007V685H647.481L733.501 760.44V685H839.301V1007H762.481L676.461 926.96V1007H570.661ZM852.896 1007V685H963.296L962.376 762.74H995.496L1014.82 685H1122.92L1084.28 842.78L1127.98 1007H1019.88L1001.48 938.46H959.616L958.696 1007H852.896Z" fill="#FFCC00"/>
</svg>
