<svg width="580" height="825" viewBox="0 0 580 825" fill="none" xmlns="http://www.w3.org/2000/svg">
<path d="M57.7306 398.931C75.2602 420.616 104.243 449.43 148.379 474.208C231.991 521.149 316.678 528.575 403.401 447.246C490.123 365.917 432.833 256.899 432.833 256.899L371.506 156.334C362.08 140.878 349.709 127.425 335.094 116.74L324.145 108.735C314.372 101.59 305.747 92.9949 298.569 83.2461L268.045 41.7903C260.87 32.0458 247.426 29.4227 237.114 35.7554C228.496 41.0485 224.28 51.3011 226.684 61.126L235.498 97.1567C237.865 106.834 232.162 116.651 222.583 119.388L185.258 130.052C170.458 134.28 154.528 131.14 142.439 121.613L95.2929 84.4559C84.8908 76.2579 70.0609 76.8846 60.3876 85.9312C52.4002 93.4011 49.7509 104.974 53.693 115.175L81.3264 186.68C87.5593 202.808 87.7685 220.643 81.9156 236.913L49.0491 328.278C40.4004 352.32 41.668 379.061 57.7306 398.931Z" fill="#FF9900"/>
<path d="M108.688 398.42L92.0926 374C82.9003 360.474 83.4651 342.567 93.4915 329.647C104.478 315.489 123.921 311.01 140.682 317.354C161.799 325.348 191.29 334.441 216.863 334.785C262.794 335.402 342.192 228.662 393.61 208.835C476.066 177.038 539.264 293.093 487.213 360.621C444.077 416.583 346.089 456.336 227.366 462.163C179.433 464.516 135.662 438.112 108.688 398.42Z" fill="#FFFDEB"/>
<path d="M144.405 254.291C136.883 246.402 137.18 233.908 145.069 226.386L165.736 206.68C173.625 199.157 186.119 199.455 193.641 207.344C201.164 215.233 200.866 227.726 192.977 235.249L172.31 254.955C164.421 262.477 151.928 262.18 144.405 254.291Z" fill="#FFFDEB"/>
<path d="M255.657 151.849C257.926 141.188 268.408 134.384 279.07 136.653L307.001 142.597C317.663 144.866 324.466 155.349 322.197 166.01C319.928 176.672 309.446 183.476 298.784 181.207L270.853 175.263C260.191 172.994 253.388 162.511 255.657 151.849Z" fill="#FFFDEB"/>
<path d="M400.694 258.482C389.271 248.227 393.933 229.412 408.847 225.776C427.952 221.119 451.633 215.448 471.179 211.082C478.873 209.363 487.174 212.549 489.517 220.077C497.676 246.304 482.06 276.769 470.205 294.794C464.313 303.753 452.078 304.608 444.098 297.445L400.694 258.482Z" fill="#660099"/>
<path d="M86.0739 135.102C83.2615 126.741 92.2854 119.342 99.9327 123.739L136.281 144.639C141.639 147.72 142.722 154.993 138.494 159.501L116.915 182.51C111.958 187.796 103.154 185.878 100.843 179.01L86.0739 135.102Z" fill="#FFC9A1"/>
<path d="M248.261 74.2442C247.238 64.9515 258.767 59.8449 264.962 66.846L285.486 90.0395C290.531 95.7405 287.234 104.764 279.703 105.87L262.016 108.469C256.645 109.257 251.692 105.432 251.098 100.036L248.261 74.2442Z" fill="#FFC9A1"/>
<path d="M236.215 268.608C243.813 277.15 227.855 293.774 215.212 295.034C202.57 296.293 188.293 284.997 191.229 279.103C194.165 273.208 196.547 280.414 208.97 277.516C221.392 274.619 228.616 260.067 236.215 268.608Z" fill="#660099"/>
<path d="M311.802 228.737C319.4 237.279 303.442 253.903 290.8 255.163C278.157 256.422 263.88 245.126 266.816 239.232C269.752 233.337 272.134 240.543 284.557 237.645C296.98 234.747 304.203 220.196 311.802 228.737Z" fill="#660099"/>
<path d="M351.811 386.934C353.239 375.286 363.839 367.001 375.487 368.429C406.263 372.202 423.304 389.187 431.589 406.3C435.482 414.341 437.267 421.973 438.105 427.519C438.53 430.328 438.728 432.709 438.818 434.482C438.863 435.372 438.882 436.118 438.887 436.7C438.89 436.991 438.889 437.242 438.888 437.45C438.887 437.554 438.886 437.648 438.884 437.73C438.884 437.771 438.882 437.81 438.882 437.845C438.881 437.863 438.881 437.881 438.88 437.897C438.88 437.905 438.88 437.917 438.88 437.921C438.88 437.933 438.797 437.942 417.638 437.384C417.393 437.377 417.15 437.371 416.91 437.365L438.879 437.944C438.57 449.675 428.809 458.935 417.078 458.625C405.354 458.316 396.1 448.567 396.397 436.846L396.395 436.907C396.394 436.933 396.394 436.956 396.394 436.977C396.393 437.019 396.393 437.051 396.393 437.075C396.392 437.122 396.392 437.135 396.392 437.116C396.391 437.076 396.389 436.909 396.375 436.633C396.347 436.075 396.273 435.111 396.086 433.871C395.701 431.322 394.898 428.041 393.338 424.818C390.717 419.404 385.39 412.457 370.316 410.61C358.668 409.182 350.383 398.582 351.811 386.934Z" fill="#FFA600"/>
<g filter="url(#filter0_n_308_7462)">
<g clip-path="url(#clip0_308_7462)">
<rect x="18.0401" y="544.137" width="484.444" height="290.666" rx="24" transform="rotate(-18.8026 18.0401 544.137)" fill="#9900CC"/>
<path d="M83.4482 590.142C91.5621 587.349 95.8753 578.507 93.0821 570.393C90.2889 562.279 81.447 557.966 73.3331 560.759C65.2192 563.552 60.906 572.394 63.6992 580.508C66.4924 588.622 75.3344 592.935 83.4482 590.142Z" fill="white"/>
<path d="M75.3426 574.365C76.6016 573.741 76.9118 571.802 76.0355 570.034C75.1592 568.265 73.4281 567.337 72.1691 567.961C70.9101 568.585 70.5999 570.524 71.4763 572.293C72.3526 574.061 74.0836 574.989 75.3426 574.365Z" fill="#9900CC"/>
<path d="M80.1247 572.719C78.7485 573.003 77.3102 571.665 76.9123 569.732C76.5144 567.799 77.3075 566.002 78.6837 565.719C80.06 565.436 81.4982 566.773 81.8961 568.706C82.2941 570.639 81.501 572.436 80.1247 572.719Z" fill="#9900CC"/>
<path d="M72.3977 578.752C73.3007 578.166 73.3259 576.602 72.4539 575.258C71.5819 573.915 70.143 573.301 69.24 573.887C68.337 574.473 68.3119 576.037 69.1838 577.381C70.0558 578.724 71.4947 579.338 72.3977 578.752Z" fill="#9900CC"/>
<path d="M85.1458 574.364C84.0734 574.458 83.0907 573.241 82.9509 571.645C82.8112 570.05 83.5672 568.68 84.6396 568.586C85.7121 568.492 86.6947 569.709 86.8345 571.305C86.9743 572.901 86.2182 574.27 85.1458 574.364Z" fill="#9900CC"/>
<path d="M86.9802 578.965C88.1964 582.498 84.2417 581.795 80.9719 582.921C77.7021 584.046 75.0178 587.034 73.8015 583.501C72.8397 580.707 74.6768 576.458 78.3159 575.205C81.9551 573.953 86.0183 576.171 86.9802 578.965Z" fill="#9900CC"/>
<path d="M186.865 525.263L182.968 538.927L195.038 547.745L188.394 550.068L181.394 544.745L179.175 553.205L172.649 555.452L176.713 541.225L165.09 532.759L171.778 530.457L178.288 535.407L180.371 527.499L186.865 525.263Z" fill="white"/>
<path d="M165.405 557.946L159.353 553.38L158.242 555.822L159.655 559.925L154.518 561.694L146.75 539.127L151.886 537.359L156.074 549.522L159.319 541.106L165.813 538.87L161.52 548.443L171.835 555.732L165.405 557.946Z" fill="white"/>
<path d="M149.226 551.554L152.908 562.247L147.771 564.016L144.279 553.871C143.7 552.191 142.313 551.729 140.73 552.274C138.921 552.897 138.028 554.397 138.773 556.562L142.02 565.995L136.884 567.764L131.056 550.835L136.16 549.078L136.861 551.113C137.232 549.251 138.839 547.83 141.132 547.041C145.009 545.706 147.803 547.418 149.226 551.554Z" fill="white"/>
<path d="M132.918 559.698C134.775 565.093 132.389 569.709 127.252 571.477C122.115 573.245 117.394 571.076 115.537 565.681C113.679 560.286 116.065 555.67 121.202 553.902C126.339 552.134 131.06 554.302 132.918 559.698ZM127.684 561.499C126.761 558.818 124.981 558.057 122.881 558.78C120.781 559.503 119.847 561.198 120.77 563.879C121.693 566.561 123.473 567.322 125.573 566.599C127.673 565.876 128.607 564.181 127.684 561.499Z" fill="white"/>
<path d="M115.636 567.526C116.815 570.95 115.15 575.246 110.433 576.869L100.063 580.439L92.2776 557.824L103.262 554.043C107.365 552.63 110.542 554.825 111.542 557.733C112.332 560.027 111.762 562.464 109.82 563.855C112.638 563.644 114.78 565.038 115.636 567.526ZM100.59 564.756L104.984 563.243C106.405 562.754 106.935 561.668 106.534 560.505C106.178 559.471 105.223 559.005 103.834 559.483L99.3109 561.04L100.59 564.756ZM110.072 568.682C109.638 567.422 108.422 566.829 106.742 567.408L102.058 569.02L103.615 573.543L108.041 572.019C109.883 571.386 110.528 570.007 110.072 568.682Z" fill="white"/>
<circle cx="483.877" cy="646.454" r="24" transform="rotate(-18.8026 483.877 646.454)" fill="white" fill-opacity="0.2"/>
<circle cx="514.17" cy="636.14" r="24" transform="rotate(-18.8026 514.17 636.14)" fill="white" fill-opacity="0.2"/>
</g>
</g>
<path d="M501.089 489.109L515.993 509.028C504.727 517.457 488.762 515.158 480.333 503.892C472.246 493.084 474.036 477.951 484.144 469.296C484.085 469.169 484.017 469.027 483.936 468.873L483.78 468.586L483.466 468.008C477.052 455.823 481.492 440.677 493.58 433.917C505.668 427.157 520.898 431.303 527.921 443.147L528.249 443.717L528.712 444.56C538.262 462.253 536.426 478.891 530.499 491.076C527.759 496.71 524.394 500.942 521.771 503.756C520.433 505.191 519.209 506.342 518.225 507.206C517.73 507.64 517.287 508.009 516.913 508.311C516.725 508.462 516.554 508.598 516.4 508.717C516.323 508.777 516.25 508.833 516.182 508.884C516.148 508.91 516.115 508.936 516.084 508.96C516.068 508.972 516.052 508.983 516.037 508.994C516.029 509 516.018 509.009 516.014 509.012C516.003 509.02 515.988 509.022 501.089 489.109ZM485.425 468.265C485.411 468.275 485.397 468.286 485.383 468.297C485.356 468.317 485.329 468.338 485.303 468.358C485.251 468.398 485.201 468.436 485.155 468.472C485.13 468.491 485.106 468.511 485.083 468.529C485.204 468.435 485.324 468.341 485.447 468.249C485.443 468.252 485.432 468.259 485.425 468.265ZM500.73 488.63C500.68 488.562 500.629 488.495 500.579 488.427L501.089 489.109C500.97 488.95 500.851 488.791 500.73 488.63Z" fill="#FFA600"/>
<path d="M474.778 382.882C487.809 376.77 503.288 382.196 509.691 394.994L509.989 395.609L510.501 396.722C521.047 420.041 518.13 440.735 511.607 455.577C508.447 462.768 504.58 468.332 501.475 472.145C499.906 474.072 498.479 475.615 497.348 476.762C496.781 477.338 496.283 477.819 495.871 478.204C495.666 478.397 495.481 478.566 495.319 478.711C495.239 478.784 495.163 478.851 495.095 478.913C495.06 478.943 495.027 478.971 494.995 478.999C494.98 479.013 494.964 479.026 494.95 479.04C494.942 479.046 494.931 479.056 494.928 479.059C494.917 479.068 494.883 479.051 477.517 459.114C477.485 459.077 477.453 459.04 477.421 459.003L494.906 479.077C483.881 488.681 467.158 487.528 457.554 476.503C448.089 465.637 449.072 449.238 459.656 439.573C459.761 439.465 460.04 439.171 460.418 438.708C461.24 437.697 462.3 436.166 463.132 434.273C464.448 431.277 465.752 426.477 462.39 418.84L462.05 418.093L461.768 417.471C456.021 404.365 461.746 388.993 474.778 382.882ZM460.086 439.186C460.073 439.198 460.06 439.21 460.047 439.221C460.021 439.244 459.997 439.266 459.974 439.286C459.928 439.327 459.886 439.365 459.849 439.398C459.798 439.444 459.756 439.483 459.722 439.515C459.85 439.399 459.977 439.283 460.108 439.169L460.107 439.169C460.103 439.172 460.093 439.181 460.086 439.186Z" fill="#FFA600"/>
<path d="M432.303 361.358C444.842 355.477 459.737 360.699 465.898 373.014L466.185 373.605L466.678 374.676C476.825 397.115 474.018 417.027 467.742 431.309C464.701 438.229 460.98 443.582 457.992 447.251C456.482 449.105 455.109 450.591 454.021 451.694C453.475 452.248 452.996 452.711 452.6 453.082C452.402 453.267 452.224 453.43 452.069 453.57C451.991 453.64 451.919 453.705 451.853 453.763C451.82 453.793 451.787 453.82 451.757 453.847C451.742 453.86 451.727 453.873 451.713 453.886C451.706 453.892 451.696 453.901 451.692 453.904C451.682 453.913 451.649 453.896 434.939 434.712C434.908 434.677 434.877 434.641 434.846 434.606L451.671 453.922C441.062 463.163 424.971 462.054 415.729 451.445C406.622 440.989 407.568 425.209 417.752 415.909C417.853 415.805 418.122 415.522 418.485 415.077C419.277 414.104 420.296 412.631 421.097 410.809C422.363 407.927 423.618 403.308 420.383 395.959L420.056 395.24L419.784 394.642C414.255 382.03 419.764 367.239 432.303 361.358ZM418.166 415.537C418.153 415.549 418.141 415.56 418.128 415.571C418.104 415.593 418.08 415.613 418.058 415.633C418.014 415.673 417.973 415.709 417.938 415.741C417.888 415.785 417.848 415.823 417.816 415.853C417.938 415.742 418.061 415.63 418.187 415.521L418.186 415.52C418.182 415.524 418.172 415.532 418.166 415.537Z" fill="#FFA600"/>
<defs>
<filter id="filter0_n_308_7462" x="18.0401" y="387.996" width="552.275" height="431.295" filterUnits="userSpaceOnUse" color-interpolation-filters="sRGB">
<feFlood flood-opacity="0" result="BackgroundImageFix"/>
<feBlend mode="normal" in="SourceGraphic" in2="BackgroundImageFix" result="shape"/>
<feTurbulence type="fractalNoise" baseFrequency="10 10" stitchTiles="stitch" numOctaves="3" result="noise" seed="9841" />
<feColorMatrix in="noise" type="luminanceToAlpha" result="alphaNoise" />
<feComponentTransfer in="alphaNoise" result="coloredNoise1">
<feFuncA type="discrete" tableValues="0 0 0 0 0 0 0 0 0 1 1 1 1 1 1 1 1 1 1 1 1 1 1 1 1 1 1 1 1 1 1 1 1 1 1 1 1 1 1 1 0 0 0 0 0 0 0 0 0 0 0 0 0 0 0 0 0 0 0 0 0 0 0 0 0 0 0 0 0 0 0 0 0 0 0 0 0 0 0 0 0 0 0 0 0 0 0 0 0 0 0 0 0 0 0 0 0 0 0 0 "/>
</feComponentTransfer>
<feComposite operator="in" in2="shape" in="coloredNoise1" result="noise1Clipped" />
<feComponentTransfer in="alphaNoise" result="coloredNoise2">
<feFuncA type="discrete" tableValues="0 0 0 0 0 0 0 0 0 0 0 0 0 0 0 0 0 0 0 0 0 0 0 0 0 0 0 0 0 0 0 0 0 0 0 0 0 0 0 0 0 0 0 0 0 0 0 0 0 0 0 0 0 0 0 0 0 0 0 0 1 1 1 1 1 1 1 1 1 1 1 1 1 1 1 1 1 1 1 1 1 1 1 1 1 1 1 1 1 1 1 0 0 0 0 0 0 0 0 0 "/>
</feComponentTransfer>
<feComposite operator="in" in2="shape" in="coloredNoise2" result="noise2Clipped" />
<feFlood flood-color="rgba(62, 32, 88, 0.25)" result="color1Flood" />
<feComposite operator="in" in2="noise1Clipped" in="color1Flood" result="color1" />
<feFlood flood-color="rgba(255, 255, 255, 0.25)" result="color2Flood" />
<feComposite operator="in" in2="noise2Clipped" in="color2Flood" result="color2" />
<feMerge result="effect1_noise_308_7462">
<feMergeNode in="shape" />
<feMergeNode in="color1" />
<feMergeNode in="color2" />
</feMerge>
</filter>
<clipPath id="clip0_308_7462">
<rect x="18.0401" y="544.137" width="484.444" height="290.666" rx="24" transform="rotate(-18.8026 18.0401 544.137)" fill="white"/>
</clipPath>
</defs>
</svg>
