<svg width="90" height="24" viewBox="0 0 90 24" fill="none" xmlns="http://www.w3.org/2000/svg">
<path d="M14.3008 11.1519C14.2769 8.50262 16.47 7.21372 16.5703 7.15372C15.3283 5.34285 13.4032 5.09542 12.7266 5.0757C11.1098 4.90554 9.54139 6.04319 8.71774 6.04319C7.87766 6.04319 6.60931 5.09214 5.24232 5.12008C3.48323 5.14721 1.83759 6.16567 0.935029 7.7472C-0.927628 10.9719 0.461556 15.7108 2.24612 18.3173C3.13882 19.5939 4.18194 21.0192 5.54728 20.9691C6.88303 20.914 7.38199 20.1175 8.99394 20.1175C10.5911 20.1175 11.0596 20.9691 12.4521 20.937C13.8857 20.914 14.7882 19.6547 15.6497 18.3666C16.6813 16.9035 17.0956 15.4625 17.112 15.3885C17.0783 15.377 14.3279 14.3273 14.3008 11.1519Z" fill="white" fill-opacity="0.8"/>
<path d="M11.6719 3.36117C12.3904 2.46272 12.8819 1.2404 12.7455 0C11.7056 0.0460321 10.4052 0.719252 9.65639 1.59797C8.99385 2.3723 8.40201 3.64147 8.55491 4.83501C9.72297 4.92215 10.9223 4.24564 11.6719 3.36117Z" fill="white" fill-opacity="0.8"/>
<path d="M33.6327 20.7859H31.7659L30.7434 17.5727H27.189L26.215 20.7859H24.3975L27.919 9.84668H30.094L33.6327 20.7859ZM30.4351 16.2246L29.5104 13.3681C29.4126 13.0763 29.2292 12.3891 28.9588 11.3074H28.9259C28.8182 11.7726 28.6448 12.4598 28.4064 13.3681L27.4981 16.2246H30.4351Z" fill="white" fill-opacity="0.8"/>
<path d="M42.6893 16.7452C42.6893 18.0867 42.3268 19.1471 41.6017 19.9256C40.9524 20.6185 40.146 20.9646 39.1834 20.9646C38.1444 20.9646 37.398 20.5914 36.9435 19.845H36.9106V24.0002H35.1581V15.495C35.1581 14.6516 35.1359 13.786 35.0931 12.8983H36.6344L36.7322 14.1485H36.7651C37.3495 13.2065 38.2365 12.7363 39.4267 12.7363C40.3572 12.7363 41.134 13.1038 41.7555 13.8395C42.3785 14.576 42.6893 15.5443 42.6893 16.7452ZM40.9039 16.8093C40.9039 16.0416 40.7313 15.4087 40.3844 14.9105C40.0054 14.391 39.4966 14.1313 38.8587 14.1313C38.4264 14.1313 38.0334 14.2759 37.6824 14.5612C37.3306 14.8489 37.1005 15.2245 36.9928 15.6898C36.9385 15.9068 36.9114 16.0843 36.9114 16.2241V17.5393C36.9114 18.113 37.0873 18.5972 37.4391 18.9926C37.7909 19.388 38.248 19.5852 38.8102 19.5852C39.4703 19.5852 39.9841 19.3304 40.3515 18.8224C40.7197 18.3136 40.9039 17.6429 40.9039 16.8093Z" fill="white" fill-opacity="0.8"/>
<path d="M51.7626 16.7452C51.7626 18.0867 51.4001 19.1471 50.6743 19.9256C50.0257 20.6185 49.2193 20.9646 48.2568 20.9646C47.2177 20.9646 46.4714 20.5914 46.0176 19.845H45.9847V24.0002H44.2322V15.495C44.2322 14.6516 44.21 13.786 44.1673 12.8983H45.7086L45.8064 14.1485H45.8392C46.4229 13.2065 47.3098 12.7363 48.5009 12.7363C49.4306 12.7363 50.2074 13.1038 50.8304 13.8395C51.4511 14.576 51.7626 15.5443 51.7626 16.7452ZM49.9772 16.8093C49.9772 16.0416 49.8038 15.4087 49.4569 14.9105C49.0779 14.391 48.5708 14.1313 47.9321 14.1313C47.4989 14.1313 47.1068 14.2759 46.755 14.5612C46.4031 14.8489 46.1738 15.2245 46.0661 15.6898C46.0127 15.9068 45.9847 16.0843 45.9847 16.2241V17.5393C45.9847 18.113 46.1607 18.5972 46.5108 18.9926C46.8626 19.3871 47.3197 19.5852 47.8836 19.5852C48.5436 19.5852 49.0574 19.3304 49.4248 18.8224C49.7931 18.3136 49.9772 17.6429 49.9772 16.8093Z" fill="white" fill-opacity="0.8"/>
<path d="M61.9031 17.7183C61.9031 18.6488 61.58 19.4059 60.9315 19.9903C60.2188 20.629 59.2267 20.9479 57.9517 20.9479C56.7746 20.9479 55.831 20.7211 55.1166 20.2665L55.5227 18.8058C56.2921 19.2711 57.1363 19.5045 58.0561 19.5045C58.7162 19.5045 59.2299 19.3549 59.599 19.0573C59.9665 18.7598 60.1498 18.3603 60.1498 17.8622C60.1498 17.4183 59.9985 17.0443 59.6952 16.7409C59.3935 16.4376 58.8896 16.1557 58.186 15.8951C56.2707 15.1808 55.3139 14.1344 55.3139 12.7583C55.3139 11.8591 55.6493 11.1217 56.3209 10.548C56.99 9.9734 57.8827 9.68652 58.999 9.68652C59.9944 9.68652 60.8213 9.85997 61.4814 10.206L61.0433 11.6347C60.4268 11.2993 59.7297 11.1316 58.9496 11.1316C58.3331 11.1316 57.8514 11.2837 57.5062 11.5862C57.2144 11.8566 57.0681 12.1862 57.0681 12.5767C57.0681 13.0091 57.2349 13.3666 57.5703 13.6478C57.8621 13.9075 58.3923 14.1886 59.1617 14.4919C60.1029 14.8709 60.7942 15.3139 61.2389 15.8219C61.682 16.3283 61.9031 16.9621 61.9031 17.7183Z" fill="white" fill-opacity="0.8"/>
<path d="M67.7005 14.2135H65.7688V18.0432C65.7688 19.0172 66.1091 19.5039 66.7914 19.5039C67.1046 19.5039 67.3643 19.4767 67.5698 19.4225L67.6183 20.7533C67.2731 20.8824 66.8185 20.9473 66.2554 20.9473C65.5633 20.9473 65.0224 20.7361 64.632 20.3144C64.2432 19.8919 64.0475 19.1833 64.0475 18.1878V14.2118H62.8967V12.8966H64.0475V11.4524L65.7688 10.9329V12.8966H67.7005V14.2135Z" fill="white" fill-opacity="0.8"/>
<path d="M76.4153 16.7772C76.4153 17.9897 76.0684 18.9851 75.3763 19.7635C74.6504 20.565 73.687 20.9645 72.4861 20.9645C71.3287 20.9645 70.4073 20.5806 69.7201 19.8129C69.0329 19.0451 68.6893 18.076 68.6893 16.9079C68.6893 15.6856 69.0427 14.6844 69.7521 13.9059C70.4599 13.1267 71.415 12.7371 72.616 12.7371C73.7734 12.7371 74.7047 13.1209 75.4075 13.8895C76.0799 14.6351 76.4153 15.5976 76.4153 16.7772ZM74.597 16.8339C74.597 16.1064 74.4416 15.4825 74.1268 14.9622C73.7594 14.3326 73.2341 14.0186 72.5535 14.0186C71.849 14.0186 71.3139 14.3334 70.9465 14.9622C70.6317 15.4834 70.4763 16.1171 70.4763 16.8668C70.4763 17.5943 70.6317 18.2182 70.9465 18.7377C71.3254 19.3673 71.8548 19.6813 72.5379 19.6813C73.207 19.6813 73.7323 19.3608 74.1112 18.7212C74.4342 18.191 74.597 17.5606 74.597 16.8339Z" fill="white" fill-opacity="0.8"/>
<path d="M82.112 14.4395C81.9386 14.4075 81.7536 14.391 81.5596 14.391C80.9431 14.391 80.4664 14.6236 80.131 15.0897C79.8392 15.5007 79.6929 16.0202 79.6929 16.6474V20.7862H77.9412L77.9576 15.3824C77.9576 14.4732 77.9354 13.6455 77.8918 12.8991H79.4183L79.4824 14.4083H79.5309C79.7159 13.8896 80.0077 13.472 80.4072 13.1588C80.7976 12.8769 81.2193 12.7363 81.6739 12.7363C81.8358 12.7363 81.9821 12.7478 82.112 12.7684V14.4395Z" fill="white" fill-opacity="0.8"/>
<path d="M89.9495 16.4689C89.9495 16.7829 89.9289 17.0476 89.8854 17.2638H84.6278C84.6484 18.0431 84.9024 18.639 85.3907 19.05C85.8337 19.4175 86.4067 19.6016 87.1103 19.6016C87.8887 19.6016 88.5989 19.4775 89.2376 19.2284L89.5122 20.445C88.7658 20.7705 87.8846 20.9324 86.8678 20.9324C85.6447 20.9324 84.6846 20.5724 83.9859 19.8531C83.2888 19.1339 82.9395 18.168 82.9395 16.9564C82.9395 15.767 83.2641 14.7764 83.9144 13.9865C84.595 13.1431 85.5148 12.7214 86.6722 12.7214C87.809 12.7214 88.6696 13.1431 89.2541 13.9865C89.7169 14.6564 89.9495 15.485 89.9495 16.4689ZM88.2784 16.0144C88.2899 15.4949 88.1756 15.0461 87.938 14.6671C87.6347 14.1797 87.1687 13.9364 86.5415 13.9364C85.9685 13.9364 85.5025 14.1739 85.1465 14.6507C84.8547 15.0296 84.6813 15.4842 84.6278 16.0136L88.2784 16.0144Z" fill="white" fill-opacity="0.8"/>
<path d="M29.8517 3.11733C29.8517 4.08482 29.5615 4.81312 28.982 5.30221C28.4453 5.75349 27.6824 5.97954 26.6944 5.97954C26.2045 5.97954 25.7853 5.95816 25.4343 5.91542V0.629126C25.8921 0.555146 26.3853 0.517334 26.918 0.517334C27.8592 0.517334 28.5686 0.722012 29.047 1.13137C29.5829 1.59416 29.8517 2.25587 29.8517 3.11733ZM28.9434 3.14116C28.9434 2.51398 28.7773 2.0331 28.4453 1.69773C28.1132 1.36317 27.6282 1.19549 26.9895 1.19549C26.7182 1.19549 26.4872 1.21357 26.2957 1.25138V5.27015C26.4018 5.28659 26.5958 5.29399 26.8777 5.29399C27.5369 5.29399 28.0458 5.11068 28.4042 4.74407C28.7626 4.37745 28.9434 3.84315 28.9434 3.14116Z" fill="white" fill-opacity="0.8"/>
<path d="M34.6688 3.96234C34.6688 4.55829 34.4986 5.04656 34.1583 5.42961C33.8016 5.82335 33.3289 6.01981 32.7387 6.01981C32.1699 6.01981 31.717 5.83157 31.3791 5.45345C31.0421 5.07615 30.8736 4.60021 30.8736 4.02646C30.8736 3.42639 31.047 2.93402 31.3956 2.55178C31.7441 2.16955 32.2126 1.97803 32.8028 1.97803C33.3717 1.97803 33.8287 2.16627 34.1748 2.54356C34.5036 2.91018 34.6688 3.38365 34.6688 3.96234ZM33.7753 3.99029C33.7753 3.63272 33.698 3.32611 33.5443 3.07047C33.3634 2.76139 33.1062 2.60686 32.7716 2.60686C32.4255 2.60686 32.1625 2.76139 31.9817 3.07047C31.8271 3.32611 31.7507 3.63765 31.7507 4.00591C31.7507 4.36348 31.8279 4.67008 31.9817 4.92573C32.1682 5.2348 32.428 5.38933 32.7634 5.38933C33.0922 5.38933 33.3503 5.23233 33.5361 4.91751C33.6955 4.65693 33.7753 4.34786 33.7753 3.99029Z" fill="white" fill-opacity="0.8"/>
<path d="M41.1245 2.05713L39.912 5.93205H39.1229L38.6206 4.24941C38.4932 3.82936 38.3897 3.41179 38.3091 2.9975H38.2935C38.2187 3.4233 38.1151 3.84005 37.982 4.24941L37.4485 5.93205H36.6503L35.5102 2.05713H36.3955L36.8336 3.89924C36.9397 4.3349 37.0268 4.75001 37.0967 5.14292H37.1123C37.1764 4.81906 37.2824 4.40641 37.432 3.90746L37.982 2.05795H38.6839L39.2108 3.868C39.3383 4.30941 39.4418 4.73439 39.5216 5.14375H39.5454C39.6038 4.74508 39.6917 4.3201 39.8084 3.868L40.2786 2.05795H41.1245V2.05713Z" fill="white" fill-opacity="0.8"/>
<path d="M45.5919 5.93188H44.7304V3.71248C44.7304 3.02857 44.4707 2.68662 43.9495 2.68662C43.6939 2.68662 43.4876 2.78033 43.3273 2.96856C43.1686 3.1568 43.0881 3.37874 43.0881 3.63274V5.93106H42.2266V3.1642C42.2266 2.82389 42.2159 2.45481 42.1954 2.05532H42.9524L42.9927 2.66114H43.0166C43.1168 2.4729 43.2664 2.31754 43.4629 2.19342C43.6963 2.04874 43.9577 1.97559 44.2438 1.97559C44.6055 1.97559 44.9063 2.09231 45.1455 2.32658C45.4431 2.61346 45.5919 3.04172 45.5919 3.61055V5.93188Z" fill="white" fill-opacity="0.8"/>
<path d="M47.9656 5.93196H47.1049V0.279053H47.9656V5.93196Z" fill="white" fill-opacity="0.8"/>
<path d="M53.0386 3.96234C53.0386 4.55829 52.8684 5.04656 52.5281 5.42961C52.1714 5.82335 51.6979 6.01981 51.1085 6.01981C50.5389 6.01981 50.086 5.83157 49.7489 5.45345C49.4119 5.07615 49.2434 4.60021 49.2434 4.02646C49.2434 3.42639 49.4169 2.93402 49.7654 2.55178C50.1139 2.16955 50.5824 1.97803 51.1718 1.97803C51.7415 1.97803 52.1977 2.16627 52.5446 2.54356C52.8734 2.91018 53.0386 3.38365 53.0386 3.96234ZM52.1443 3.99029C52.1443 3.63272 52.067 3.32611 51.9133 3.07047C51.7333 2.76139 51.4751 2.60686 51.1414 2.60686C50.7945 2.60686 50.5315 2.76139 50.3515 3.07047C50.1969 3.32611 50.1205 3.63765 50.1205 4.00591C50.1205 4.36348 50.1978 4.67008 50.3515 4.92573C50.5381 5.2348 50.7978 5.38933 51.1332 5.38933C51.462 5.38933 51.7193 5.23233 51.905 4.91751C52.0653 4.65693 52.1443 4.34786 52.1443 3.99029Z" fill="white" fill-opacity="0.8"/>
<path d="M57.2089 5.93186H56.4354L56.3712 5.48551H56.3474C56.0827 5.84144 55.7054 6.01981 55.2155 6.01981C54.8497 6.01981 54.5538 5.90226 54.331 5.66882C54.1288 5.45674 54.0277 5.19288 54.0277 4.87969C54.0277 4.40622 54.225 4.04536 54.622 3.79547C55.0182 3.54558 55.5755 3.42311 56.2932 3.42886V3.35652C56.2932 2.84606 56.0252 2.59124 55.4884 2.59124C55.1062 2.59124 54.7692 2.68742 54.4782 2.87812L54.3031 2.31258C54.6631 2.08982 55.1078 1.97803 55.6323 1.97803C56.645 1.97803 57.153 2.51233 57.153 3.58093V5.00793C57.153 5.39509 57.1719 5.70334 57.2089 5.93186ZM56.3145 4.60021V4.00262C55.3643 3.98618 54.8892 4.24675 54.8892 4.78352C54.8892 4.98573 54.9434 5.13698 55.0544 5.23809C55.1654 5.33919 55.3067 5.38933 55.4753 5.38933C55.6643 5.38933 55.841 5.32933 56.0022 5.21014C56.1641 5.09013 56.2636 4.93806 56.3005 4.75146C56.3096 4.70954 56.3145 4.65857 56.3145 4.60021Z" fill="white" fill-opacity="0.8"/>
<path d="M62.1032 5.93196H61.3388L61.2985 5.3097H61.2747C61.0305 5.78318 60.6146 6.01991 60.0302 6.01991C59.5633 6.01991 59.1744 5.83661 58.8662 5.46999C58.5579 5.10338 58.4042 4.62744 58.4042 4.043C58.4042 3.41581 58.5711 2.90781 58.9065 2.51983C59.2312 2.15815 59.629 1.97731 60.1025 1.97731C60.6228 1.97731 60.987 2.15239 61.1941 2.50339H61.2105V0.279053H62.0728V4.88802C62.0728 5.26532 62.0827 5.61302 62.1032 5.93196ZM61.2105 4.29782V3.65173C61.2105 3.53993 61.2023 3.44951 61.1867 3.38047C61.1382 3.17332 61.0338 2.99906 60.8752 2.85849C60.7149 2.71793 60.5217 2.64724 60.2989 2.64724C59.9775 2.64724 59.726 2.77465 59.5411 3.03029C59.3578 3.28594 59.2649 3.61227 59.2649 4.01094C59.2649 4.39399 59.3528 4.70471 59.5296 4.94391C59.7161 5.19873 59.9677 5.32614 60.2825 5.32614C60.5653 5.32614 60.7913 5.22011 60.9631 5.00721C61.1292 4.81075 61.2105 4.57401 61.2105 4.29782Z" fill="white" fill-opacity="0.8"/>
<path d="M69.469 3.96234C69.469 4.55829 69.2989 5.04656 68.9585 5.42961C68.6018 5.82335 68.13 6.01981 67.539 6.01981C66.971 6.01981 66.518 5.83157 66.1794 5.45345C65.8423 5.07615 65.6738 4.60021 65.6738 4.02646C65.6738 3.42639 65.8473 2.93402 66.1958 2.55178C66.5443 2.16955 67.0129 1.97803 67.6039 1.97803C68.1719 1.97803 68.6298 2.16627 68.975 2.54356C69.3038 2.91018 69.469 3.38365 69.469 3.96234ZM68.5763 3.99029C68.5763 3.63272 68.499 3.32611 68.3453 3.07047C68.1637 2.76139 67.9072 2.60686 67.5718 2.60686C67.2266 2.60686 66.9635 2.76139 66.7819 3.07047C66.6273 3.32611 66.5509 3.63765 66.5509 4.00591C66.5509 4.36348 66.6282 4.67008 66.7819 4.92573C66.9685 5.2348 67.2282 5.38933 67.5636 5.38933C67.8924 5.38933 68.1513 5.23233 68.3371 4.91751C68.4958 4.65693 68.5763 4.34786 68.5763 3.99029Z" fill="white" fill-opacity="0.8"/>
<path d="M74.1011 5.93188H73.2404V3.71248C73.2404 3.02857 72.9807 2.68662 72.4587 2.68662C72.2031 2.68662 71.9967 2.78033 71.8373 2.96856C71.6778 3.1568 71.5981 3.37874 71.5981 3.63274V5.93106H70.7358V3.1642C70.7358 2.82389 70.7259 2.45481 70.7054 2.05532H71.4616L71.5019 2.66114H71.5257C71.6268 2.4729 71.7765 2.31754 71.9721 2.19342C72.2064 2.04874 72.4669 1.97559 72.7538 1.97559C73.1147 1.97559 73.4155 2.09231 73.6547 2.32658C73.9531 2.61346 74.1011 3.04172 74.1011 3.61055V5.93188Z" fill="white" fill-opacity="0.8"/>
<path d="M79.9014 2.7021H78.9528V4.58448C78.9528 5.06289 79.1213 5.30209 79.4551 5.30209C79.6096 5.30209 79.7378 5.28894 79.8389 5.26181L79.8611 5.9153C79.691 5.97942 79.4674 6.01148 79.192 6.01148C78.8517 6.01148 78.587 5.90791 78.3955 5.70076C78.2031 5.49362 78.1078 5.14509 78.1078 4.656V2.7021H77.5414V2.05683H78.1078V1.34662L78.952 1.0918V2.05601H79.9006L79.9014 2.7021Z" fill="white" fill-opacity="0.8"/>
<path d="M84.4613 5.93196H83.599V3.72899C83.599 3.0344 83.3393 2.6867 82.8189 2.6867C82.4194 2.6867 82.1465 2.88809 81.9969 3.29087C81.9714 3.37553 81.9566 3.47911 81.9566 3.60076V5.93114H81.096V0.279053H81.9566V2.61436H81.9731C82.2443 2.18939 82.6332 1.97731 83.137 1.97731C83.4938 1.97731 83.7889 2.09403 84.0232 2.3283C84.315 2.62011 84.4613 3.05413 84.4613 3.62789V5.93196Z" fill="white" fill-opacity="0.8"/>
<path d="M89.1647 3.81116C89.1647 3.9657 89.1532 4.09558 89.1327 4.20162H86.5491C86.5606 4.58467 86.6839 4.87648 86.9231 5.07869C87.1418 5.25953 87.4237 5.34995 87.769 5.34995C88.1512 5.34995 88.4997 5.28912 88.8137 5.16665L88.9486 5.76506C88.5811 5.92453 88.1487 6.00427 87.6481 6.00427C87.0481 6.00427 86.5754 5.82754 86.2335 5.47407C85.8899 5.12061 85.7197 4.64632 85.7197 4.05119C85.7197 3.46675 85.8784 2.98012 86.1981 2.59214C86.5319 2.17785 86.9831 1.9707 87.5528 1.9707C88.1101 1.9707 88.5334 2.17785 88.8195 2.59214C89.0505 2.92094 89.1647 3.32783 89.1647 3.81116ZM88.3427 3.5884C88.3493 3.33276 88.2926 3.11246 88.1759 2.92669C88.0263 2.68749 87.7986 2.56748 87.4903 2.56748C87.2092 2.56748 86.9799 2.6842 86.8048 2.91847C86.6617 3.10507 86.5771 3.32783 86.5491 3.5884H88.3427Z" fill="white" fill-opacity="0.8"/>
</svg>
