<svg width="1230" height="1420" viewBox="0 0 1230 1420" fill="none" xmlns="http://www.w3.org/2000/svg">
<circle cx="569.196" cy="569.196" r="569.196" fill="#99DDFF"/>
<path d="M247.61 755.952C275.095 789.952 320.538 835.129 389.739 873.98C520.835 947.578 653.617 959.223 789.59 831.706C925.563 704.189 835.737 533.259 835.737 533.259L739.582 375.582C724.804 351.348 705.406 330.255 682.491 313.502L665.324 300.951C650 289.749 636.478 276.272 625.223 260.987L577.365 195.988C566.115 180.709 545.036 176.596 528.868 186.525C515.354 194.825 508.745 210.9 512.514 226.304L526.334 282.797C530.045 297.97 521.102 313.363 506.084 317.654L447.562 334.373C424.358 341.003 399.381 336.081 380.426 321.142L306.505 262.884C290.195 250.03 266.943 251.012 251.776 265.197C239.253 276.909 235.099 295.054 241.28 311.048L284.606 423.161C294.379 448.449 294.707 476.413 285.53 501.923L233.999 645.174C220.438 682.87 222.426 724.797 247.61 755.952Z" fill="#FF9900"/>
<path d="M327.488 755.155L301.468 716.867C287.055 695.659 287.941 667.582 303.661 647.325C320.888 625.126 351.372 618.105 377.651 628.051C410.762 640.584 457 654.842 497.097 655.381C569.113 656.348 693.602 488.99 774.219 457.902C903.504 408.048 1002.59 590.012 920.981 695.89C853.348 783.633 699.711 845.963 513.564 855.099C438.41 858.787 369.781 817.389 327.488 755.155Z" fill="#FFFDEB"/>
<path d="M383.493 529.175C371.699 516.806 372.165 497.217 384.535 485.423L416.939 454.525C429.308 442.731 448.897 443.197 460.691 455.566C472.485 467.936 472.019 487.524 459.65 499.319L427.246 530.216C414.877 542.011 395.288 541.545 383.493 529.175Z" fill="#FFFDEB"/>
<path d="M557.925 368.556C561.482 351.839 577.918 341.171 594.635 344.729L638.428 354.049C655.144 357.606 665.812 374.042 662.255 390.759C658.697 407.476 642.261 418.143 625.544 414.586L581.751 405.266C565.035 401.708 554.367 385.272 557.925 368.556Z" fill="#FFFDEB"/>
<path d="M785.339 535.745C767.427 519.666 774.737 490.167 798.122 484.467C828.077 477.164 865.205 468.273 895.852 461.426C907.916 458.731 920.932 463.727 924.604 475.531C937.397 516.651 912.912 564.419 894.326 592.68C885.087 606.728 865.904 608.068 853.392 596.837L785.339 535.745Z" fill="#660099"/>
<path d="M292.041 342.297C287.632 329.187 301.781 317.587 313.771 324.482L370.762 357.25C379.163 362.081 380.861 373.484 374.232 380.553L340.398 416.629C332.625 424.916 318.821 421.91 315.198 411.141L292.041 342.297Z" fill="#FFC9A1"/>
<path d="M546.333 246.871C544.73 232.301 562.805 224.294 572.519 235.271L604.699 271.637C612.609 280.575 607.44 294.723 595.631 296.458L567.9 300.532C559.479 301.769 551.713 295.77 550.782 287.31L546.333 246.871Z" fill="#FFC9A1"/>
<path d="M527.44 551.624C539.354 565.016 514.333 591.082 494.51 593.056C474.688 595.031 452.302 577.32 456.906 568.078C461.509 558.836 465.245 570.135 484.722 565.591C504.2 561.047 515.526 538.231 527.44 551.624Z" fill="#660099"/>
<path d="M645.966 489.11C657.88 502.502 632.859 528.568 613.036 530.543C593.214 532.517 570.828 514.806 575.432 505.564C580.035 496.322 583.771 507.621 603.248 503.077C622.726 498.533 634.052 475.717 645.966 489.11Z" fill="#660099"/>
<path d="M851.419 709.647C862.437 688.369 888.618 680.051 909.896 691.069C966.118 720.18 986.654 764.81 990.338 803.457C992.07 821.616 990.058 837.493 987.718 848.705C986.533 854.383 985.219 859.08 984.129 862.538C983.583 864.273 983.087 865.715 982.684 866.833C982.483 867.392 982.303 867.872 982.152 868.268C982.076 868.467 982.008 868.646 981.946 868.802C981.916 868.88 981.886 868.953 981.859 869.02C981.846 869.054 981.833 869.088 981.82 869.119C981.814 869.134 981.806 869.157 981.803 869.164C981.793 869.186 981.629 869.145 941.528 853.028C941.063 852.841 940.603 852.656 940.148 852.474L981.785 869.208C972.849 891.441 947.581 902.221 925.347 893.285C903.129 884.354 892.349 859.113 901.255 836.891L901.207 837.006C901.188 837.054 901.171 837.099 901.155 837.139C901.125 837.217 901.101 837.28 901.084 837.325C901.05 837.416 901.04 837.44 901.054 837.403C901.081 837.327 901.195 837.006 901.365 836.468C901.708 835.379 902.253 833.481 902.776 830.976C903.852 825.821 904.65 818.972 903.956 811.694C902.79 799.467 897.534 782.382 869.998 768.124C848.719 757.106 840.402 730.926 851.419 709.647Z" fill="#FFA600"/>
<path d="M83.0024 884.884C83.0024 858.017 104.782 836.237 131.649 836.237H1007.29C1034.16 836.237 1055.94 858.017 1055.94 884.884V1371.35C1055.94 1398.22 1034.16 1420 1007.29 1420H131.649C104.782 1420 83.0024 1398.22 83.0024 1371.35V884.884Z" fill="#9900CC"/>
<path d="M175.234 957C191.054 957 203.878 944.175 203.878 928.355C203.878 912.536 191.054 899.711 175.234 899.711C159.414 899.711 146.59 912.536 146.59 928.355C146.59 944.175 159.414 957 175.234 957Z" fill="white"/>
<path d="M170.572 924.634C173.141 924.302 174.846 921.108 174.379 917.499C173.913 913.891 171.452 911.235 168.883 911.567C166.314 911.899 164.61 915.093 165.076 918.702C165.542 922.31 168.003 924.966 170.572 924.634Z" fill="#9900CC"/>
<path d="M179.896 924.634C177.327 924.302 175.622 921.108 176.089 917.499C176.555 913.891 179.016 911.235 181.585 911.567C184.154 911.899 185.858 915.093 185.392 918.702C184.926 922.31 182.465 924.966 179.896 924.634Z" fill="#9900CC"/>
<path d="M162.806 930.514C164.732 930.034 165.715 927.323 165.001 924.457C164.287 921.592 162.147 919.659 160.222 920.138C158.296 920.618 157.313 923.33 158.027 926.195C158.741 929.06 160.881 930.994 162.806 930.514Z" fill="#9900CC"/>
<path d="M187.662 930.514C185.736 930.034 184.753 927.323 185.467 924.457C186.181 921.592 188.321 919.659 190.247 920.138C192.172 920.618 193.155 923.33 192.441 926.195C191.727 929.06 189.587 930.994 187.662 930.514Z" fill="#9900CC"/>
<path d="M188.098 939.634C188.098 946.523 181.626 942.925 175.251 942.925C168.876 942.925 162.404 946.523 162.404 939.634C162.404 934.187 168.156 927.882 175.251 927.882C182.347 927.882 188.098 934.187 188.098 939.634Z" fill="#9900CC"/>
<path d="M394.437 905.963L379.446 927.442L395.193 950.056L382.217 950.119L373.21 936.639L364.265 950.056H351.541L367.163 927.694L351.982 905.963H365.021L373.399 918.498L381.776 905.963H394.437Z" fill="white"/>
<path d="M337.418 950.056L329.607 938.466L326.206 942.056V950.056H316.191V906.057H326.206V929.773L336.914 917.049H349.575L336.347 931.159L349.953 950.056H337.418Z" fill="white"/>
<path d="M313.051 929.206V950.055H303.036V930.277C303.036 927.001 300.894 925.363 297.807 925.363C294.28 925.363 291.824 927.442 291.824 931.662V950.055H281.808V917.049H291.761V921.017C293.524 917.994 297.178 916.482 301.65 916.482C309.208 916.482 313.051 921.143 313.051 929.206Z" fill="white"/>
<path d="M279.735 933.615C279.735 944.134 272.807 950.748 262.791 950.748C252.776 950.748 245.847 944.134 245.847 933.615C245.847 923.096 252.776 916.482 262.791 916.482C272.807 916.482 279.735 923.096 279.735 933.615ZM269.531 933.615C269.531 928.387 266.886 925.993 262.791 925.993C258.697 925.993 256.051 928.387 256.051 933.615C256.051 938.843 258.697 941.237 262.791 941.237C266.886 941.237 269.531 938.843 269.531 933.615Z" fill="white"/>
<path d="M244.914 936.891C244.914 943.568 239.434 950.056 230.238 950.056H210.018V905.963H231.434C239.434 905.963 243.654 911.695 243.654 917.364C243.654 921.836 241.198 925.742 236.977 927.001C242.016 928.324 244.914 932.041 244.914 936.891ZM220.348 923.033H228.915C231.686 923.033 233.261 921.458 233.261 919.191C233.261 917.175 231.875 915.789 229.167 915.789H220.348V923.033ZM234.521 935.568C234.521 933.111 232.757 931.348 229.482 931.348H220.348V940.166H228.978C232.568 940.166 234.521 938.151 234.521 935.568Z" fill="white"/>
<ellipse cx="817.052" cy="1276.32" rx="71.4013" ry="71.4014" fill="white" fill-opacity="0.2"/>
<ellipse cx="912.257" cy="1276.32" rx="71.4013" ry="71.4014" fill="white" fill-opacity="0.2"/>
<path d="M1064.44 1011.39L1078.8 1060.11C1051.24 1068.23 1022.32 1052.48 1014.2 1024.92C1006.41 998.482 1020.6 970.791 1046.1 961.416C1046.08 961.13 1046.05 960.811 1046.01 960.457L1045.91 959.797L1045.72 958.468C1042.11 930.584 1061.38 904.753 1089.33 900.412C1117.27 896.072 1143.47 914.839 1148.49 942.504L1148.71 943.828L1149 945.771C1154.69 986.427 1139.34 1016.97 1119.33 1036.07C1110.08 1044.91 1100.63 1050.61 1093.61 1054.13C1090.03 1055.93 1086.87 1057.26 1084.37 1058.21C1083.11 1058.69 1082 1059.08 1081.07 1059.4C1080.6 1059.55 1080.18 1059.69 1079.8 1059.81C1079.61 1059.87 1079.43 1059.92 1079.26 1059.97C1079.18 1060 1079.1 1060.03 1079.02 1060.05C1078.98 1060.06 1078.95 1060.07 1078.91 1060.08C1078.89 1060.09 1078.86 1060.1 1078.85 1060.1C1078.83 1060.11 1078.8 1060.1 1064.44 1011.39ZM1049.29 960.352C1049.25 960.363 1049.22 960.374 1049.19 960.384C1049.12 960.404 1049.05 960.425 1048.99 960.444C1048.86 960.483 1048.74 960.521 1048.62 960.557C1048.56 960.576 1048.5 960.597 1048.45 960.615C1048.74 960.522 1049.04 960.427 1049.34 960.338C1049.33 960.341 1049.31 960.347 1049.29 960.352ZM1064.1 1010.22C1064.05 1010.05 1064 1009.89 1063.95 1009.72L1064.44 1011.39C1064.33 1011 1064.21 1010.61 1064.1 1010.22Z" fill="#FFA600"/>
<path d="M1089.63 789.358C1118.92 786.929 1144.68 808.324 1147.84 837.374L1147.97 838.763L1148.16 841.257C1151.76 893.39 1131.46 930.923 1108.41 954.691C1097.25 966.207 1085.89 974.105 1077.24 979.194C1072.86 981.766 1069.03 983.706 1066.05 985.097C1064.56 985.794 1063.26 986.361 1062.2 986.806C1061.67 987.028 1061.2 987.22 1060.79 987.384C1060.58 987.466 1060.39 987.542 1060.21 987.61C1060.12 987.643 1060.04 987.674 1059.96 987.705C1059.92 987.72 1059.88 987.735 1059.84 987.75C1059.82 987.757 1059.8 987.768 1059.79 987.771C1059.76 987.781 1059.71 987.723 1040.65 937.213C1040.62 937.12 1040.58 937.026 1040.54 936.933L1059.73 987.791C1031.8 998.33 1000.61 984.23 990.073 956.297C979.687 928.768 993.232 898.079 1020.36 887.108C1020.64 886.977 1021.39 886.612 1022.44 885.994C1024.73 884.645 1027.85 882.468 1030.79 879.436C1035.44 874.639 1041.35 866.38 1040.34 849.371L1040.22 847.699L1040.13 846.308C1038.45 817.136 1060.34 791.787 1089.63 789.358ZM1021.46 886.675C1021.43 886.688 1021.39 886.701 1021.36 886.714C1021.3 886.738 1021.24 886.763 1021.18 886.786C1021.06 886.831 1020.95 886.873 1020.86 886.91C1020.73 886.963 1020.62 887.008 1020.53 887.044C1020.86 886.913 1021.19 886.782 1021.52 886.657L1021.51 886.656C1021.5 886.659 1021.48 886.669 1021.46 886.675Z" fill="#FFA600"/>
<path d="M1023.65 717.951C1051.83 715.614 1076.63 736.202 1079.66 764.154L1079.79 765.491L1079.97 767.891C1083.43 818.056 1063.9 854.171 1041.73 877.042C1030.98 888.123 1020.05 895.723 1011.73 900.62C1007.52 903.095 1003.83 904.962 1000.96 906.3C999.526 906.971 998.28 907.517 997.258 907.945C996.748 908.159 996.291 908.344 995.895 908.501C995.696 908.58 995.512 908.653 995.343 908.718C995.259 908.751 995.178 908.78 995.101 908.809C995.063 908.824 995.025 908.839 994.989 908.853C994.971 908.86 994.945 908.87 994.936 908.874C994.909 908.883 994.858 908.827 976.521 860.225C976.487 860.134 976.453 860.045 976.419 859.955L994.883 908.893C968.005 919.034 937.994 905.466 927.853 878.587C917.858 852.098 930.892 822.567 956.999 812.01C957.266 811.885 957.983 811.533 958.994 810.939C961.201 809.641 964.2 807.546 967.029 804.629C971.503 800.013 977.19 792.065 976.224 775.699L976.109 774.09L976.016 772.751C974.402 744.68 995.467 720.289 1023.65 717.951ZM958.057 811.594C958.024 811.606 957.991 811.619 957.96 811.631C957.897 811.655 957.838 811.679 957.782 811.701C957.668 811.745 957.565 811.785 957.475 811.821C957.348 811.871 957.244 811.914 957.161 811.949C957.475 811.823 957.79 811.697 958.108 811.577L958.106 811.576C958.097 811.579 958.072 811.588 958.057 811.594Z" fill="#FFA600"/>
</svg>
