<svg width="49" height="40" viewBox="0 0 49 40" fill="none" xmlns="http://www.w3.org/2000/svg">
<path d="M45.688 0.163456L2.21652 16.9427C2.19066 16.9527 2.16559 16.9645 2.14152 16.9783C1.78901 17.1774 -0.671075 18.6783 2.7978 20.024L2.83342 20.0371L13.1847 23.3728C13.2637 23.3984 13.3473 23.4064 13.4297 23.3964C13.5122 23.3864 13.5914 23.3585 13.6619 23.3148L39.3362 7.33694C39.3992 7.29775 39.4693 7.27137 39.5425 7.25932C39.8997 7.20041 40.9282 7.09006 40.2775 7.91392C39.5416 8.84906 22.005 24.5239 20.0587 26.2624C19.9465 26.3629 19.877 26.5024 19.8646 26.6523L19.0152 36.7519C19.0151 36.8547 19.039 36.9562 19.0851 37.0482C19.1312 37.1403 19.1981 37.2203 19.2806 37.2821C19.3976 37.3556 19.5352 37.3897 19.6731 37.3792C19.8111 37.3688 19.9419 37.3144 20.0465 37.2241L26.1967 31.7414C26.2939 31.6548 26.4178 31.604 26.548 31.5973C26.6781 31.5907 26.8066 31.6286 26.9121 31.7049L37.6421 39.4759L37.6768 39.4993C37.9365 39.6592 40.7416 41.2873 41.5516 37.6515L48.9581 2.52282C48.9685 2.41154 49.0688 1.18837 48.1922 0.465507C47.2715 -0.290089 45.9684 0.0914496 45.7724 0.132596C45.7435 0.140621 45.7153 0.150941 45.688 0.163456Z" fill="#FFA600"/>
</svg>
