<svg width="104" height="24" viewBox="0 0 104 24" fill="none" xmlns="http://www.w3.org/2000/svg">
<path d="M86.4113 20.4077H88.0559V9.38823H86.4113V20.4077ZM101.225 13.358L99.34 18.1352H99.2836L97.3269 13.358H95.5552L98.4903 20.0348L96.8166 23.7491H98.5318L103.054 13.3583L101.225 13.358ZM91.8975 19.156C91.3599 19.156 90.608 18.8864 90.608 18.2202C90.608 17.3697 91.5441 17.0437 92.3515 17.0437C93.0742 17.0437 93.4153 17.1993 93.8543 17.4121C93.7265 18.4329 92.8477 19.156 91.8975 19.156ZM92.0967 13.117C90.9059 13.117 89.6728 13.6417 89.1625 14.8041L90.6221 15.4135C90.9341 14.8041 91.515 14.6058 92.1249 14.6058C92.9755 14.6058 93.8402 15.1157 93.8542 16.0233V16.1365C93.5563 15.9664 92.9182 15.7113 92.139 15.7113C90.5648 15.7113 88.9633 16.5758 88.9633 18.192C88.9633 19.6663 90.2537 20.6162 91.6992 20.6162C92.8045 20.6162 93.4153 20.12 93.7969 19.5386H93.8542V20.3896H95.4425V16.1647C95.4425 14.2084 93.9812 13.117 92.0967 13.117ZM81.932 14.6994H79.5927V10.9224H81.932C83.1616 10.9224 83.8597 11.9402 83.8597 12.8109C83.8597 13.6648 83.1616 14.6994 81.932 14.6994ZM81.8897 9.38849H77.9488V20.4079H79.5928V16.2333H81.8898C83.7126 16.2333 85.5045 14.914 85.5045 12.8113C85.5045 10.709 83.7125 9.38849 81.8897 9.38849ZM60.4002 19.1579C59.2639 19.1579 58.3129 18.2062 58.3129 16.9003C58.3129 15.5792 59.2639 14.6141 60.4002 14.6141C61.5219 14.6141 62.4023 15.5793 62.4023 16.9003C62.4023 18.2062 61.5219 19.1579 60.4002 19.1579ZM62.2886 13.9748H62.2318C61.8627 13.5347 61.1524 13.1371 60.2583 13.1371C58.3835 13.1371 56.6655 14.7846 56.6655 16.9003C56.6655 19.0016 58.3835 20.6346 60.2583 20.6346C61.1524 20.6346 61.8627 20.2369 62.2318 19.7828H62.2886V20.3219C62.2886 21.7567 61.5219 22.523 60.2865 22.523C59.2787 22.523 58.6539 21.799 58.398 21.1885L56.9641 21.7848C57.3755 22.7784 58.4686 24.0001 60.2866 24.0001C62.2181 24.0001 63.8511 22.8638 63.8511 20.0946V13.3642H62.2887L62.2886 13.9748ZM64.9873 20.4074H66.6338V9.3879H64.9873V20.4074ZM69.0622 16.7722C69.0198 15.3238 70.1845 14.5855 71.0219 14.5855C71.6754 14.5855 72.2286 14.9123 72.4139 15.3805L69.0622 16.7722ZM74.174 15.5224C73.8617 14.6851 72.9104 13.1371 70.9651 13.1371C69.0335 13.1371 67.4291 14.6565 67.4291 16.8859C67.4291 18.9875 69.0198 20.6346 71.1493 20.6346C72.8674 20.6346 73.8618 19.5842 74.2738 18.9733L72.9957 18.1212C72.5696 18.7461 71.9877 19.1579 71.1493 19.1579C70.312 19.1579 69.7153 18.7744 69.3325 18.0218L74.3444 15.9487L74.174 15.5224ZM34.2391 14.2874V15.8777H38.0446C37.931 16.7723 37.6328 17.4254 37.1783 17.8799C36.6243 18.4335 35.7581 19.0443 34.239 19.0443C31.896 19.0443 30.0644 17.1558 30.0644 14.8128C30.0644 12.4698 31.896 10.5811 34.239 10.5811C35.5029 10.5811 36.4257 11.0782 37.1073 11.7172L38.2294 10.5952C37.2777 9.6865 36.0142 8.99072 34.239 8.99072C31.0294 8.99072 28.3315 11.6036 28.3315 14.8128C28.3315 18.0217 31.0294 20.6346 34.239 20.6346C35.9712 20.6346 37.2778 20.0666 38.3 19.0016C39.3509 17.9508 39.6776 16.4741 39.6776 15.2811C39.6776 14.9123 39.6489 14.5715 39.5922 14.2874H34.2391ZM44.0045 19.1579C42.8683 19.1579 41.8884 18.2206 41.8884 16.8859C41.8884 15.5369 42.8683 14.6142 44.0045 14.6142C45.1403 14.6142 46.1201 15.5369 46.1201 16.8859C46.1201 18.2206 45.1403 19.1579 44.0045 19.1579ZM44.0045 13.1371C41.9307 13.1371 40.2412 14.7133 40.2412 16.8859C40.2412 19.0443 41.9307 20.6346 44.0045 20.6346C46.0775 20.6346 47.7673 19.0443 47.7673 16.8859C47.7673 14.7133 46.0775 13.1371 44.0045 13.1371ZM52.2131 19.1579C51.0776 19.1579 50.0974 18.2206 50.0974 16.8859C50.0974 15.5369 51.0777 14.6142 52.2131 14.6142C53.3493 14.6142 54.3288 15.5369 54.3288 16.8859C54.3288 18.2206 53.3493 19.1579 52.2131 19.1579ZM52.2131 13.1371C50.1401 13.1371 48.4506 14.7133 48.4506 16.8859C48.4506 19.0443 50.1401 20.6346 52.2131 20.6346C54.2869 20.6346 55.9764 19.0443 55.9764 16.8859C55.9764 14.7133 54.2869 13.1371 52.2131 13.1371Z" fill="white" fill-opacity="0.8"/>
<path d="M10.4159 11.0856L1.03259 21.0453C1.03295 21.0474 1.03365 21.0491 1.03398 21.0512C1.32176 22.1327 2.30959 22.9291 3.48194 22.9291C3.95059 22.9291 4.39059 22.8024 4.76793 22.5799L4.7979 22.5624L15.3606 16.4673L10.4159 11.0856Z" fill="white" fill-opacity="0.6"/>
<path d="M19.9089 9.39002L19.8999 9.38387L15.3396 6.74023L10.202 11.312L15.3575 16.4668L19.8937 13.8495C20.6889 13.4202 21.2288 12.5818 21.2288 11.6149C21.2288 10.6551 20.6963 9.82078 19.9089 9.39002Z" fill="white" fill-opacity="0.2"/>
<path d="M1.03168 2.14185C0.975266 2.34986 0.945618 2.56774 0.945618 2.794V20.3938C0.945618 20.6196 0.974917 20.8383 1.03203 21.0455L10.7393 11.3403L1.03168 2.14185Z" fill="white" fill-opacity="0.8"/>
<path d="M10.486 11.5939L15.3431 6.73824L4.79235 0.621051C4.40884 0.391354 3.96124 0.258789 3.4823 0.258789C2.30994 0.258789 1.32078 1.05657 1.03295 2.13935C1.03259 2.14041 1.03259 2.14113 1.03259 2.14206L10.486 11.5939Z" fill="white" fill-opacity="0.4"/>
<path d="M33.9323 2.5863H31.361V3.22259H33.2878C33.2355 3.74183 33.0289 4.14948 32.6804 4.44558C32.332 4.74173 31.8871 4.89043 31.3611 4.89043C30.784 4.89043 30.2951 4.68937 29.8944 4.29001C29.5018 3.88236 29.3022 3.37826 29.3022 2.77093C29.3022 2.16364 29.5018 1.65953 29.8944 1.25191C30.2951 0.852542 30.784 0.652819 31.3611 0.652819C31.6572 0.652819 31.9395 0.703767 32.1984 0.81535C32.4573 0.926847 32.6653 1.0825 32.8278 1.28223L33.3167 0.793316C33.0949 0.541235 32.814 0.348466 32.4655 0.207974C32.1171 0.0674759 31.7535 4.66533e-05 31.361 4.66533e-05C30.5912 4.66533e-05 29.9384 0.2672 29.4054 0.800211C28.8724 1.33453 28.6052 1.99286 28.6052 2.77094C28.6052 3.54903 28.8724 4.20878 29.4054 4.7418C29.9384 5.2747 30.5912 5.54197 31.361 5.54197C32.1694 5.54197 32.814 5.28301 33.3098 4.75688C33.7463 4.31899 33.9694 3.72679 33.9694 2.98586C33.9694 2.86052 33.9543 2.7268 33.9323 2.5863ZM34.9284 0.118372V5.42343H38.0257V4.77198H35.6101V3.08908H37.7889V2.45279H35.6101V0.771216H38.0257V0.118353L34.9284 0.118372ZM42.3688 0.771237V0.118372H38.7233V0.771237H40.2052V5.42342H40.8869V0.771237H42.3688ZM45.6692 0.118372H44.9875V5.42343H45.6692V0.118372ZM50.1689 0.771237V0.118372H46.5235V0.771237H48.0053V5.42342H48.687V0.771237H50.1689ZM57.048 0.808429C56.5219 0.26716 55.8774 0 55.1075 0C54.3363 0 53.6918 0.267154 53.1657 0.800165C52.6396 1.32628 52.3807 1.98594 52.3807 2.7709C52.3807 3.55586 52.6396 4.21561 53.1657 4.74176C53.6918 5.27466 54.3363 5.54192 55.1075 5.54192C55.8705 5.54192 56.5219 5.27468 57.048 4.74176C57.5741 4.21564 57.833 3.55592 57.833 2.7709C57.833 1.99281 57.5741 1.33445 57.048 0.808429ZM53.6546 1.25186C54.0471 0.852496 54.5291 0.652772 55.1075 0.652772C55.6846 0.652772 56.1666 0.852503 56.5522 1.25186C56.9447 1.64436 57.1375 2.15661 57.1375 2.77088C57.1375 3.38655 56.9447 3.89742 56.5522 4.28997C56.1666 4.68933 55.6846 4.89038 55.1075 4.89038C54.5291 4.89038 54.0471 4.68933 53.6546 4.28997C53.2703 3.88919 53.0775 3.38654 53.0775 2.77088C53.0775 2.15663 53.2703 1.65261 53.6546 1.25186ZM59.4526 2.11953L59.4237 1.09618H59.4526L62.1492 5.42338H62.8612V0.118319H62.1795V3.22253L62.2084 4.24587H62.1795L59.6014 0.118319H58.7709V5.42338H59.4526V2.11953Z" fill="white" fill-opacity="0.8"/>
</svg>
