<svg width="390" height="607" viewBox="0 0 390 607" fill="none" xmlns="http://www.w3.org/2000/svg">
<g clip-path="url(#clip0_312_163)">
<path d="M164.063 197.494C138.973 155.066 140.115 96.3861 140.197 92.7709C143.171 107.196 170.553 143.303 197.684 176.177C224.926 209.184 324.289 273.285 338.034 335.519C359.917 434.167 310.248 496.833 267.865 519.327C265.258 514.718 263.084 510.297 261.692 506.475C256.577 491.998 245.708 464.502 245.708 464.502C245.708 464.502 245.684 464.145 245.685 463.535C241.371 466.278 237.021 468.321 232.906 469.583C230.103 470.454 227.234 471.044 224.327 471.355C224.951 471.709 225.509 472.044 226.022 472.266C226.022 472.266 235.259 499.919 237.26 506.537C238.343 510.056 243.718 518.123 249.016 526.758C204.49 537.523 136.7 509.699 108.641 463.107C78.8383 413.507 80.7336 265.881 71.3202 229.188C61.9811 192.518 30.1383 168.138 30.1383 168.138C64.2999 182.127 96.4847 215.187 98.4188 217.149C24.6064 84.911 33.6962 0.000124857 33.6962 0.000124857C59.1338 110.537 164.063 197.494 164.063 197.494Z" fill="#FF5522"/>
<path d="M143.497 226.191C173.97 287.483 270.386 322.642 280.251 386.418C285.968 423.427 265.829 450.92 245.693 463.538C245.654 456.998 244.902 418.56 235.806 400.615C225.715 380.767 210.236 367.553 194.086 378.581C173.318 392.663 185.354 421.273 191.396 433.627C197.065 445.219 215.717 465.98 224.335 471.358C202.55 473.943 178.011 462.378 161.713 442.023C138.167 412.708 148.067 348.419 147.058 330.057C146.049 311.695 134.088 285.727 134.088 285.727C151.408 297.306 169.209 316.396 169.209 316.396C139.991 255.994 143.497 226.191 143.497 226.191Z" fill="#FF8822"/>
<path d="M235.806 400.616C244.902 418.56 245.654 456.999 245.693 463.538C241.378 466.281 237.029 468.324 232.914 469.586C230.111 470.457 227.242 471.047 224.335 471.358C215.717 465.98 197.076 445.214 191.396 433.627C185.354 421.273 173.318 392.663 194.086 378.581C210.236 367.553 225.715 380.768 235.806 400.616Z" fill="#221F20"/>
<path d="M245.693 463.538C245.692 464.148 245.716 464.505 245.716 464.505C245.716 464.505 256.585 492.001 261.699 506.479C263.092 510.3 265.265 514.721 267.873 519.33C264.339 521.285 260.785 522.874 257.347 524.175C254.652 525.187 251.916 526.097 249.024 526.761C243.73 518.119 238.355 510.051 237.268 506.541C235.255 499.927 226.03 472.269 226.03 472.269C225.517 472.047 224.967 471.716 224.335 471.358C227.25 471.051 230.111 470.457 232.914 469.586C237.025 468.313 241.379 466.281 245.693 463.538Z" fill="#221F20"/>
<path d="M267.873 519.33C275.154 532.22 285.353 546.812 289.526 555.233C295.189 566.643 313.883 583.688 320.391 611.823C327.009 639.921 342.665 662.175 355.933 685.921C369.306 709.619 380.764 734.149 385.93 755.961C391.168 777.803 424.126 829.554 424.126 829.554L400.367 841.3C400.367 841.3 384.343 818.099 380.07 807.289C375.796 796.479 363.954 776.652 359.914 763.503C355.826 750.248 343.967 728.856 339.471 720.381C334.972 711.913 313.834 662.747 307.199 651.788C300.589 640.747 292.697 606.364 290.436 596.339C288.286 586.447 263.335 559.386 259.584 547.15C257.846 541.527 253.497 533.904 249.036 526.757C251.927 526.092 254.663 525.182 257.358 524.17C260.789 522.866 264.343 521.277 267.884 519.326L267.873 519.33Z" fill="#FF8822"/>
</g>
<defs>
<clipPath id="clip0_312_163">
<rect width="626.726" height="687.547" fill="white" transform="translate(-215 575.27) rotate(-66.6206)"/>
</clipPath>
</defs>
</svg>
