<svg width="122" height="28" viewBox="0 0 122 28" fill="none" xmlns="http://www.w3.org/2000/svg">
<path d="M13.9997 28C21.7316 28 27.9996 21.732 27.9996 14C27.9996 6.26801 21.7316 0 13.9997 0C6.26783 0 -0.000106812 6.26801 -0.000106812 14C-0.000106812 21.732 6.26783 28 13.9997 28Z" fill="#FFCC00"/>
<path d="M11.7212 12.1812C12.9768 12.0189 13.8099 10.4577 13.582 8.69402C13.354 6.93037 12.1514 5.63222 10.8958 5.79451C9.64017 5.9568 8.8071 7.51807 9.03505 9.28171C9.263 11.0454 10.4656 12.3435 11.7212 12.1812Z" fill="#FF5522"/>
<path d="M16.2783 12.1812C15.0227 12.0189 14.1896 10.4577 14.4176 8.69402C14.6455 6.93038 15.8482 5.63222 17.1038 5.79451C18.3593 5.9568 19.1924 7.51807 18.9645 9.28171C18.7365 11.0454 17.5339 12.3435 16.2783 12.1812Z" fill="#FF5522"/>
<path d="M7.92577 15.0549C8.86698 14.8204 9.34718 13.4951 8.99831 12.0948C8.64945 10.6944 7.60364 9.74933 6.66242 9.98382C5.72121 10.2183 5.24101 11.5436 5.58987 12.9439C5.93874 14.3443 6.98455 15.2894 7.92577 15.0549Z" fill="#FF5522"/>
<path d="M20.0737 15.0549C19.1325 14.8204 18.6523 13.4951 19.0012 12.0948C19.3501 10.6944 20.3959 9.74933 21.3371 9.98382C22.2783 10.2183 22.7585 11.5436 22.4096 12.9439C22.0608 14.3443 21.015 15.2894 20.0737 15.0549Z" fill="#FF5522"/>
<path d="M20.2872 19.5126C20.2872 22.8794 17.124 21.1209 14.0082 21.1209C10.8924 21.1209 7.729 22.8794 7.729 19.5126C7.729 16.8501 10.5404 13.7688 14.0082 13.7688C17.476 13.7688 20.2872 16.8501 20.2872 19.5126Z" fill="#FF5522"/>
<path d="M121.135 3.05576L113.808 13.5539L121.505 24.6062L115.163 24.6369L110.76 18.0487L106.389 24.6062H100.17L107.805 13.677L100.386 3.05576H106.758L110.853 9.18223L114.947 3.05576H121.135Z" fill="#FFCC00"/>
<path d="M93.2672 24.6061L89.4497 18.9415L87.7873 20.6963V24.6061H82.8923V3.10193H87.7873V14.693L93.0209 8.47413H99.2088L92.7438 15.3703L99.3936 24.6061H93.2672Z" fill="#FFCC00"/>
<path d="M81.3578 14.4158V24.606H76.4628V14.9391C76.4628 13.3383 75.4161 12.5378 73.9076 12.5378C72.1836 12.5378 70.983 13.5538 70.983 15.6164V24.606H66.088V8.47402H70.9522V10.4136C71.8142 8.93582 73.5998 8.19695 75.7856 8.19695C79.4799 8.19695 81.3578 10.4751 81.3578 14.4158Z" fill="#FFCC00"/>
<path d="M65.0748 16.5708C65.0748 21.7121 61.6883 24.9447 56.7934 24.9447C51.8984 24.9447 48.512 21.7121 48.512 16.5708C48.512 11.4295 51.8984 8.19695 56.7934 8.19695C61.6883 8.19695 65.0748 11.4295 65.0748 16.5708ZM60.0875 16.5708C60.0875 14.0155 58.7945 12.8457 56.7934 12.8457C54.7923 12.8457 53.4993 14.0155 53.4993 16.5708C53.4993 19.1261 54.7923 20.2959 56.7934 20.2959C58.7945 20.2959 60.0875 19.1261 60.0875 16.5708Z" fill="#FFCC00"/>
<path d="M48.0558 18.1718C48.0558 21.4352 45.3775 24.6062 40.8827 24.6062H31.0005V3.05577H41.4677C45.3775 3.05577 47.4401 5.85732 47.4401 8.62809C47.4401 10.8139 46.2395 12.7227 44.1768 13.3384C46.6397 13.9849 48.0558 15.8013 48.0558 18.1718ZM36.0493 11.3989H40.2362C41.5908 11.3989 42.3604 10.6292 42.3604 9.52089C42.3604 8.53573 41.6832 7.85843 40.3594 7.85843H36.0493V11.3989ZM42.9762 17.5253C42.9762 16.3247 42.1142 15.4626 40.5133 15.4626H36.0493V19.7727H40.267C42.0218 19.7727 42.9762 18.7876 42.9762 17.5253Z" fill="#FFCC00"/>
</svg>
