<svg width="516" height="516" viewBox="0 0 516 516" fill="none" xmlns="http://www.w3.org/2000/svg">
<circle cx="258" cy="258" r="258" fill="#FFA600"/>
<g clip-path="url(#clip0_308_7512)">
<path d="M212.108 229.455C237.458 226.365 254.28 196.612 249.68 163C245.079 129.388 220.799 104.645 195.448 107.735C170.097 110.825 153.276 140.579 157.876 174.191C162.476 207.803 186.757 232.546 212.108 229.455Z" fill="#FF6600"/>
<path d="M358.118 174.132C362.718 140.52 345.896 110.767 320.546 107.677C295.195 104.586 270.914 129.329 266.314 162.941C261.714 196.553 278.535 226.306 303.886 229.397C329.237 232.487 353.517 207.744 358.118 174.132Z" fill="#FF6600"/>
<path d="M157.128 227.753C164.156 254.416 154.502 279.672 135.478 284.161C116.453 288.649 95.3702 270.628 88.3426 243.965C81.3149 217.302 90.9691 192.045 109.993 187.557C129.018 183.068 150.101 201.089 157.128 227.753Z" fill="#FF6600"/>
<path d="M358.872 227.753C351.844 254.416 361.498 279.672 380.522 284.161C399.547 288.649 420.63 270.628 427.657 243.965C434.685 217.302 425.031 192.045 406.007 187.557C386.982 183.068 365.899 201.089 358.872 227.753Z" fill="#FF6600"/>
<path d="M384.711 369.108C384.711 433.221 320.823 399.724 257.929 399.724C195.035 399.724 131.147 433.221 131.147 369.108C131.147 318.394 187.865 259.708 257.929 259.708C327.993 259.708 384.711 318.394 384.711 369.108Z" fill="#FF6600"/>
</g>
<defs>
<clipPath id="clip0_308_7512">
<rect width="344" height="301" fill="white" transform="translate(86 107.5)"/>
</clipPath>
</defs>
</svg>
