<svg width="722" height="553" viewBox="0 0 722 553" fill="none" xmlns="http://www.w3.org/2000/svg">
<rect y="165.644" width="640" height="400" rx="40" transform="rotate(-15 0 165.644)" fill="#660099"/>
<path d="M345.009 414.312C350.786 414.312 355.47 409.628 355.47 403.851C355.47 398.073 350.786 393.39 345.009 393.39C339.232 393.39 334.548 398.073 334.548 403.851C334.548 409.628 339.232 414.312 345.009 414.312Z" fill="#FF6600"/>
<path d="M353.219 329.711C355.453 360.586 350.984 388.516 343.469 388.516C335.953 388.516 326 358.352 326 329.711C326 317.93 332.195 316 339.711 316C347.328 316 352.406 317.93 353.219 329.711Z" fill="#FF6600"/>
<path d="M382.479 398.312C388.257 398.312 392.94 393.628 392.94 387.851C392.94 382.073 388.257 377.39 382.479 377.39C376.702 377.39 372.018 382.073 372.018 387.851C372.018 393.628 376.702 398.312 382.479 398.312Z" fill="#FF6600"/>
<path d="M390.689 313.711C392.923 344.586 388.454 372.516 380.939 372.516C373.423 372.516 363.47 342.352 363.47 313.711C363.47 301.93 369.665 300 377.181 300C384.798 300 389.876 301.93 390.689 313.711Z" fill="#FF6600"/>
<path d="M419.949 382.312C425.727 382.312 430.41 377.628 430.41 371.851C430.41 366.073 425.727 361.39 419.949 361.39C414.172 361.39 409.488 366.073 409.488 371.851C409.488 377.628 414.172 382.312 419.949 382.312Z" fill="#FF6600"/>
<path d="M428.159 297.711C430.393 328.586 425.925 356.516 418.409 356.516C410.893 356.516 400.94 326.352 400.94 297.711C400.94 285.93 407.135 284 414.651 284C422.268 284 427.346 285.93 428.159 297.711Z" fill="#FF6600"/>
<path d="M131.966 299.551L129.357 289.814C126.852 280.464 133.358 273.835 149.431 269.528C157.312 267.416 163.862 266.82 169.134 267.644L172.537 281.889L147.578 288.576L148.447 291.822L163.506 288.367C171.703 286.502 176.415 288.635 178.491 296.692L181.396 307.84C183.451 315.82 176.399 322.265 161.253 326.323C153.294 328.456 146.338 329.077 140.307 328.209L137.127 314.484L161.855 307.858L161.006 304.69L147.127 307.912C138.93 309.777 134.14 307.665 131.966 299.551ZM187.729 318.401L173.235 264.309L214.731 253.19L219.204 269.881L195.094 276.341L195.923 279.432L219.105 273.221L222.935 287.516L199.753 293.728L200.643 297.051L224.598 290.632L229.071 307.323L187.729 318.401ZM241.018 266.355L242.219 270.837L251.415 268.373L250.214 263.891L241.018 266.355ZM250.46 301.592L232.687 306.354L218.193 252.262L240.371 246.32C257.835 241.64 263.908 243.906 267.262 256.424L269.602 265.156C272.501 275.975 267.567 282.597 251.185 286.987L246.857 288.146L250.46 301.592ZM292.122 290.429L284.461 261.837L271.324 265.357L264.491 239.857L308.537 228.055L315.37 253.555L302.234 257.075L309.895 285.667L292.122 290.429ZM326.149 281.311L311.655 227.219L353.152 216.1L357.624 232.792L333.515 239.252L334.343 242.343L357.525 236.131L361.355 250.427L338.173 256.638L339.064 259.961L363.019 253.542L367.491 270.234L326.149 281.311ZM398.735 252.751L393.171 254.242L384.097 246.652L388.88 264.502L371.107 269.265L356.613 215.173L372.841 210.825L387.375 221.176L395.018 204.882L411.246 200.534L425.74 254.626L407.967 259.388L403.039 240.997L398.735 252.751ZM437.428 211.822L438.505 215.841L449.246 212.962L448.169 208.944L437.428 211.822ZM441.264 226.448L442.465 230.93L454.288 227.762L453.087 223.28L441.264 226.448ZM454.069 247.035L429.573 253.599L415.079 199.507L438.57 193.213C456.807 188.326 461.9 190.026 465.13 202.08L465.731 204.321C466.787 208.262 465.859 211.907 463.402 213.559C467.072 213.652 470.069 216.493 471.291 221.052L472.637 226.075C475.867 238.13 472.305 242.149 454.069 247.035ZM479.36 240.258L464.866 186.166L506.363 175.048L510.835 191.739L486.725 198.199L487.554 201.29L510.736 195.078L514.566 209.374L491.384 215.586L492.275 218.908L516.229 212.49L520.702 229.181L479.36 240.258ZM534.195 187.799L535.396 192.28L543.432 190.127L542.231 185.645L534.195 187.799ZM543.637 223.036L524.318 228.212L509.824 174.12L533.547 167.763C551.011 163.084 557.085 165.349 560.439 177.868L562.282 184.745C563.897 190.773 563.083 195.463 559.207 199.235L571.61 215.54L552.137 220.758L542.473 206.948L539.537 207.735L543.637 223.036Z" fill="#FFA600"/>
<path d="M127.924 265.925L120.677 238.879L129.563 236.498L133.394 250.794L142.358 248.392L145.774 261.142L127.924 265.925ZM157.004 241.278L151.788 242.676L152.554 245.535L157.77 244.138L157.004 241.278ZM165.549 237.622L170.104 254.623L161.218 257.004L160.462 254.183L155.246 255.581L156.002 258.401L147.115 260.782L142.56 243.782C140.562 236.325 143.01 232.481 151.24 230.275C159.508 228.06 163.562 230.204 165.549 237.622ZM187.374 221.008L191.929 238.008C193.917 245.426 191.479 249.309 183.211 251.525C174.981 253.73 170.938 251.625 168.94 244.168L164.385 227.167L173.271 224.786L177.092 239.043L182.308 237.646L178.487 223.389L187.374 221.008ZM196.341 247.592L189.094 220.546L195.547 218.818L204.47 223.218L202.772 216.882L211.659 214.5L218.905 241.546L212.453 243.275L203.427 238.488L205.228 245.211L196.341 247.592ZM240.2 222.796L242.778 232.417C241.603 234.678 237.594 236.87 232.88 238.133C223.337 240.69 219.367 237.157 217.781 231.081L215.894 223.884C214.307 217.808 216.097 212.897 225.756 210.309C230.122 209.139 234.407 208.902 236.508 209.788L239.331 220.171L225.152 223.971L225.866 226.637L240.2 222.796ZM259.104 230.775L257.323 224.13L251.914 225.579L253.695 232.225L244.808 234.606L237.561 207.56L246.448 205.179L248.405 212.481L253.814 211.032L251.857 203.729L260.744 201.348L267.99 228.394L259.104 230.775ZM284.32 208.365L284.92 210.606L291.141 208.939L290.54 206.698L284.32 208.365ZM290.242 222.432L279.579 225.289L272.332 198.243L277.239 196.928L277.228 196.89L283.333 195.254C293.494 192.531 297.098 195.624 298.723 201.69L300.649 208.877C302.274 214.943 301.486 219.419 290.242 222.432ZM314.583 199.055L309.367 200.453L310.133 203.312L315.349 201.914L314.583 199.055ZM323.128 195.399L327.683 212.399L318.797 214.781L318.041 211.96L312.825 213.358L313.581 216.178L304.694 218.559L300.139 201.559C298.141 194.102 300.589 190.257 308.819 188.052C317.087 185.837 321.14 187.981 323.128 195.399ZM335.586 210.282L331.755 195.986L325.187 197.746L321.77 184.996L343.794 179.095L347.21 191.845L340.642 193.605L344.472 207.901L335.586 210.282ZM352.6 205.723L345.353 178.677L366.101 173.118L368.337 181.463L356.282 184.693L356.696 186.239L368.287 183.133L370.203 190.281L358.612 193.387L359.057 195.048L371.034 191.839L373.27 200.184L352.6 205.723Z" fill="#CF88FF"/>
</svg>
