<svg width="606" height="888" viewBox="0 0 606 888" fill="none" xmlns="http://www.w3.org/2000/svg">
<path d="M206.373 372.142C206.313 382.459 208.795 392.572 211.697 402.473L224.605 446.512C228.958 461.364 231.793 476.608 235.375 491.664C250.02 553.227 291.436 618.728 351.511 618.728C414.274 618.728 449.908 550.389 467.259 468.823C484.61 387.256 486.172 361.887 486.172 361.887C486.172 350.889 484.144 339.985 480.189 329.721L474.603 315.222C470.217 303.839 467.736 291.814 467.259 279.628L462.838 166.731L430.546 90.8327C426.741 81.8887 421.212 73.7789 414.274 66.9644L405.2 58.0516C399.416 52.37 394.534 45.8395 390.724 38.6861L374.522 8.26703C370.714 1.11678 362.055 -1.92772 354.601 1.26253C348.37 3.92907 344.576 10.3079 345.213 17.0473L347.539 41.6694C348.17 48.3398 343.37 54.2996 336.71 55.1153L309.32 58.4704C297.28 59.9451 285.279 55.4541 277.175 46.4418L247.802 13.7761C243.578 9.07857 236.654 7.93895 231.144 11.0342C226.03 13.9066 223.361 19.7492 224.54 25.4886L235.182 77.2963C238.666 94.2579 236.096 111.902 227.918 127.17L207.174 165.9C195.661 187.393 195.462 213.163 206.64 234.832L227.42 275.115C233.107 286.138 232.366 299.373 225.485 309.695C213.086 328.294 206.502 350.022 206.373 372.142Z" fill="#FFA600"/>
<path d="M235.225 231.79L226.61 213.881C221.838 203.961 223.954 192.076 231.851 184.443C240.504 176.079 253.815 174.997 264.298 180.869C277.505 188.267 296.15 197.219 313.052 199.953C343.409 204.863 406.373 141.466 442.352 133.281C500.05 120.155 530.612 203.731 489.574 243.661C455.564 276.751 386.806 293.661 307.617 285.918C275.645 282.792 249.227 260.899 235.225 231.79Z" fill="#FFFFCC"/>
<path d="M449.403 175.287C439.823 164.176 447.006 147.298 461.933 145.995C470.054 145.286 478.679 144.562 486.733 143.943C496.068 143.224 504.657 149.571 503.118 158.476C501.075 170.3 494.887 181.654 488.946 190.324C482.791 199.308 469.834 198.986 462.696 190.706L449.403 175.287Z" fill="#6600CC"/>
<path d="M273.592 139.064C269.385 133.097 270.795 124.837 276.74 120.615L292.314 109.555C298.26 105.334 306.489 106.748 310.695 112.715C314.902 118.683 313.492 126.942 307.547 131.164L291.973 142.224C286.027 146.446 277.798 145.031 273.592 139.064Z" fill="#FFFFCC"/>
<path d="M357.072 81.9418C359.608 75.0894 367.197 71.597 374.024 74.1414L391.91 80.807C398.737 83.3514 402.216 90.969 399.681 97.8214C397.146 104.674 389.557 108.166 382.729 105.622L364.844 98.9563C358.017 96.4118 354.537 88.7942 357.072 81.9418Z" fill="#FFFFCC"/>
<path d="M241.335 47.8872C239.931 39.2169 250.194 33.6169 256.68 39.5143L279.117 59.9145C283.565 63.9583 283.06 71.116 278.088 74.4902L260.851 86.1902C255.254 89.9893 247.619 86.6813 246.535 79.9874L241.335 47.8872Z" fill="#FFC9A1"/>
<path d="M356.641 29.8596C356.641 20.651 368.557 17.0572 373.614 24.7405L385.144 42.2565C388.395 47.1957 384.866 53.7813 378.968 53.7813L364.044 53.7815C359.955 53.7815 356.641 50.4552 356.641 46.3519L356.641 29.8596Z" fill="#FFC9A1"/>
<path d="M332.892 157.511C337.085 163.919 324.923 173.393 316.444 172.996C307.964 172.6 299.624 163.714 302.137 160.09C304.65 156.465 305.525 161.478 314.018 160.766C322.511 160.054 328.699 151.104 332.892 157.511Z" fill="#6600CC"/>
<path d="M381.57 137.675C381.57 146.229 374.661 153.163 366.138 153.163C357.616 153.163 350.707 146.229 350.707 137.675C350.707 129.121 357.616 122.187 366.138 122.187C374.661 122.187 381.57 129.121 381.57 137.675Z" fill="#6600CC"/>
<path d="M296.954 549.289C297.408 543.237 302.426 538.559 308.465 538.559C314.841 538.559 320.009 543.754 320.009 550.163V813.377C320.009 825.263 310.423 834.899 298.598 834.899C286.138 834.899 276.309 824.246 277.247 811.757L296.954 549.289Z" fill="#FFA600"/>
<path d="M379.964 543.241C379.964 536.871 385.122 531.707 391.484 531.707C397.52 531.707 402.532 536.371 402.974 542.397L422.729 811.893C423.64 824.317 413.818 834.9 401.375 834.9C389.55 834.9 379.964 825.302 379.964 813.462V543.241Z" fill="#FFA600"/>
<path d="M342.275 840.336V824.264C342.275 818.078 338.448 812.539 332.667 810.359L319.132 805.256C316.259 804.173 313.163 803.821 310.12 804.232L159.425 824.584C148.385 826.075 140.147 835.513 140.147 846.671V853.586C140.147 863.172 146.267 871.684 155.345 874.723L188.136 885.701C196.447 888.483 205.393 888.746 213.852 886.458L331.309 854.68C337.78 852.929 342.275 847.05 342.275 840.336Z" fill="#FFA600"/>
<path d="M364.547 840.336V824.264C364.547 818.078 368.375 812.539 374.156 810.359L387.69 805.256C390.563 804.173 393.66 803.821 396.702 804.232L547.397 824.584C558.437 826.075 566.676 835.513 566.676 846.671V853.586C566.676 863.172 560.555 871.684 551.478 874.723L518.686 885.701C510.375 888.483 501.43 888.746 492.97 886.458L375.514 854.68C369.042 852.929 364.547 847.05 364.547 840.336Z" fill="#FFA600"/>
<path d="M45.6961 239.449C28.4005 265.668 61.4035 290.011 89.2947 283.147C117.186 276.282 134.935 250.965 128.938 226.6C122.941 202.235 95.4698 188.048 67.5786 194.913C39.6875 201.777 32.4337 224.57 45.6961 239.449Z" fill="#FFA600"/>
<path d="M34.5341 208.016C23.5367 202.975 10.566 207.648 5.27799 218.452L5.0317 218.971L4.68762 219.738C-2.39117 235.81 0.369331 250.169 6.38087 260.364C9.16047 265.078 12.385 268.528 14.8661 270.795C16.1312 271.951 17.278 272.868 18.1956 273.551C18.6568 273.895 19.067 274.185 19.4144 274.422C19.5883 274.541 19.7475 274.647 19.8897 274.74C19.9608 274.787 20.028 274.83 20.0908 274.871C20.122 274.891 20.1522 274.91 20.1813 274.929C20.1959 274.938 20.2107 274.947 20.2248 274.956C20.2317 274.96 20.242 274.967 20.2456 274.969C20.2559 274.976 20.2663 274.982 32.13 256.155L20.2664 274.982C30.6643 281.534 44.4047 278.417 50.9568 268.019C57.2432 258.043 54.6275 244.991 45.2215 238.161C45.2645 238.047 45.3138 237.919 45.3736 237.779L45.4895 237.519L45.7222 236.993C50.4565 225.936 45.5316 213.058 34.5341 208.016ZM44.0724 237.378C44.098 237.394 44.1235 237.411 44.1476 237.426C44.1957 237.457 44.241 237.486 44.2834 237.514C44.3249 237.541 44.3638 237.568 44.4002 237.592L44.0335 237.354C44.0466 237.362 44.0598 237.37 44.0724 237.378Z" fill="#FFA600"/>
<path d="M171.986 176.588C169.52 164.548 157.76 156.787 145.72 159.253C113.908 165.769 97.5409 184.928 90.3253 203.486C86.9351 212.206 85.7107 220.323 85.2999 226.183C85.0918 229.151 85.0846 231.652 85.1393 233.512C85.1668 234.444 85.2098 235.225 85.2526 235.833C85.274 236.137 85.2957 236.399 85.315 236.616C85.3247 236.724 85.3335 236.822 85.3419 236.908C85.3461 236.951 85.3505 236.99 85.3543 237.028C85.3562 237.046 85.3581 237.065 85.3599 237.082C85.3608 237.09 85.3616 237.102 85.3621 237.107C85.3637 237.119 85.4508 237.121 107.492 234.767C107.748 234.74 108.001 234.713 108.251 234.686L85.3648 237.131C86.6703 249.351 97.6355 258.2 109.856 256.894C122.069 255.59 130.913 244.638 129.622 232.427L129.629 232.491C129.632 232.517 129.634 232.542 129.636 232.563C129.64 232.606 129.643 232.64 129.645 232.665C129.649 232.715 129.651 232.728 129.649 232.708C129.646 232.666 129.635 232.492 129.626 232.203C129.609 231.617 129.605 230.605 129.697 229.295C129.886 226.601 130.448 223.109 131.807 219.614C134.09 213.743 139.07 206.045 154.651 202.854C166.691 200.388 174.452 188.628 171.986 176.588Z" fill="#FFA600"/>
<path d="M59.95 173.097C48.6211 168.852 36.0166 174.439 31.5123 185.592L31.3036 186.127L30.9494 187.094C23.6811 207.341 27.516 224.483 33.9787 236.48C37.1101 242.293 40.7237 246.694 43.5816 249.68C45.0259 251.189 46.3253 252.386 47.3497 253.271C47.8636 253.715 48.3132 254.085 48.6838 254.38C48.8691 254.528 49.0353 254.657 49.1802 254.768C49.2527 254.823 49.3204 254.875 49.3821 254.921C49.413 254.945 49.443 254.966 49.4711 254.987C49.4851 254.998 49.4989 255.008 49.5122 255.018C49.5189 255.023 49.5284 255.03 49.5317 255.033C49.5414 255.04 49.5689 255.023 62.7785 237.152C62.803 237.119 62.8276 237.086 62.852 237.053L49.551 255.047C59.4342 262.352 73.3681 260.262 80.6734 250.379C87.8729 240.639 85.9474 226.965 76.4302 219.579C76.335 219.496 76.0809 219.268 75.7339 218.905C74.9765 218.114 73.9859 216.902 73.1615 215.372C71.8573 212.951 70.442 209.017 72.7458 202.392L72.9805 201.743L73.1749 201.203C77.1088 189.836 71.2789 177.342 59.95 173.097ZM76.0434 219.284C76.0555 219.293 76.0674 219.302 76.0789 219.311C76.1018 219.328 76.1235 219.344 76.1442 219.36C76.1859 219.391 76.2235 219.42 76.2565 219.445C76.3028 219.481 76.3405 219.511 76.3709 219.535C76.2562 219.446 76.1412 219.358 76.0244 219.271L76.0253 219.271C76.0287 219.273 76.0377 219.28 76.0434 219.284Z" fill="#FFA600"/>
<path d="M91.6622 211.418C113.694 213.206 113.78 213.202 113.782 213.19C113.782 213.185 113.783 213.173 113.784 213.164C113.785 213.146 113.787 213.127 113.788 213.107C113.791 213.068 113.794 213.026 113.798 212.981C113.804 212.89 113.812 212.786 113.819 212.669C113.834 212.436 113.849 212.15 113.864 211.815C113.894 211.146 113.92 210.277 113.924 209.23C113.933 207.137 113.855 204.308 113.548 200.902C112.938 194.115 111.401 184.858 107.698 174.5C100.148 153.377 83.8347 128.505 50.4297 111.179C39.5199 105.52 26.088 109.777 20.4293 120.687C14.7707 131.597 19.0279 145.029 29.9377 150.688C52.1387 162.203 61.5333 177.572 65.7895 189.48C67.9901 195.636 68.8808 201.092 69.2223 204.889C69.3919 206.774 69.4216 208.205 69.4182 209.049C69.4165 209.469 69.4063 209.739 69.4018 209.84C69.4014 209.848 69.4014 209.855 69.4011 209.861C69.4023 209.843 69.4039 209.813 69.4068 209.773C69.4083 209.752 69.4105 209.729 69.4125 209.702C69.4135 209.689 69.4147 209.675 69.4158 209.661C69.4164 209.653 69.4172 209.642 69.4175 209.638C68.437 221.878 77.5574 232.601 89.7992 233.594C102.049 234.588 112.785 225.464 113.78 213.215L91.6622 211.418ZM91.3026 211.39C91.4011 211.398 91.5001 211.406 91.5995 211.414C91.6204 211.416 91.6414 211.417 91.6622 211.418L91.3026 211.39Z" fill="#FFA600"/>
<path d="M62.0346 410.953C62.0348 429.406 80.9784 441.904 98.1313 434.768L265.89 364.974L266.419 364.746C277.419 359.841 282.529 347.099 277.838 336.001C273.073 324.727 259.997 319.42 248.634 324.148L106.658 383.215V255.098C106.658 242.873 96.6687 232.963 84.3463 232.963C72.0239 232.963 62.0346 242.873 62.0346 255.098V410.953Z" fill="#FFA600"/>
<path d="M470.483 325.277C460.871 318.238 446.838 319.656 439.14 328.445C431.442 337.233 432.993 350.064 442.605 357.102L538.997 427.689L427.387 453.352C415.444 456.098 408.197 467.176 411.2 478.095C414.204 489.015 426.32 495.641 438.263 492.895L586.169 458.887C607.024 454.092 612.871 429.546 596.087 417.255L470.483 325.277Z" fill="#FFA600"/>
</svg>
