<svg width="1920" height="753" viewBox="0 0 1920 753" fill="none" xmlns="http://www.w3.org/2000/svg">
<path d="M316.676 -2.80048e-05C427.848 -3.28643e-05 517.972 90.1415 517.972 201.337L517.972 511.395L521.997 511.395L521.997 201.337C521.997 90.1415 612.12 -4.09191e-05 723.293 -4.57786e-05L807.837 -4.94742e-05C919.009 -5.43337e-05 1009.13 90.1415 1009.13 201.337L1009.13 511.395L1012.57 511.395L1012.57 200C1012.57 89.5429 1102.11 -1.30205e-06 1212.57 -6.13028e-06L1943 -3.80586e-05L1943 752.999L968.873 752.999C857.701 752.999 767.578 662.858 767.578 551.663L767.578 241.604L763.552 241.604L763.552 551.663C763.552 662.858 673.429 752.999 562.256 752.999L477.712 752.999C366.54 752.999 276.417 662.858 276.417 551.663L276.417 241.604L272.391 241.604L272.391 551.663C272.391 662.858 182.268 752.999 71.0959 752.999L-324 753L-324 511.395L-9.16319 511.395C12.9282 511.395 30.8368 493.487 30.8368 471.395L30.8368 201.337C30.8368 90.1415 120.96 -1.94498e-05 232.132 -2.43093e-05L316.676 -2.80048e-05Z" fill="#FF6633"/>
<path d="M162.816 484.805L166.528 484.805L166.528 477.189L162.816 477.189L162.816 484.805ZM192 484.805L192 499.525L147.2 499.525L147.2 481.157C147.2 466.693 150.208 462.469 160.576 462.469L167.808 462.469C176.768 462.469 180.864 467.653 180.864 481.221L180.864 484.805L192 484.805ZM165.952 438.14L165.952 446.78L170.688 446.78L170.688 438.14L165.952 438.14ZM163.84 423.42L192 423.42L192 438.14L187.328 438.14L187.328 446.78L192 446.78L192 461.5L163.84 461.5C151.488 461.5 146.56 456.124 146.56 442.492C146.56 428.796 151.552 423.42 163.84 423.42ZM154.88 407.39L154.88 405.342L147.2 403.166L147.2 387.358L180.608 399.262L192 399.262L192 413.982L180.608 413.982L147.2 425.31L147.2 409.566L154.88 407.39ZM184.96 361.659L184.96 366.267L177.216 371.707L192 371.707L192 386.427L147.2 386.427L147.2 372.987L158.208 363.899L147.2 354.619L147.2 341.179L192 341.179L192 355.899L176.768 355.899L184.96 361.659ZM192 338.645L147.2 338.645L147.2 304.277L161.024 304.277L161.024 324.245L163.584 324.245L163.584 305.045L175.424 305.045L175.424 324.245L178.176 324.245L178.176 304.405L192 304.405L192 338.645ZM192 302.05L147.2 302.05L147.2 291.362L157.696 279.394L147.2 279.394L147.2 264.674L192 264.674L192 275.362L180.864 287.33L192 287.33L192 302.05ZM192 251.902L168.32 251.902L168.32 262.782L147.2 262.782L147.2 226.302L168.32 226.302L168.32 237.182L192 237.182L192 251.902Z" fill="#660099"/>
<path d="M360 267.42L404.8 267.42L404.8 301.02L384.384 301.02L384.384 282.14L381.824 282.14L381.824 300.252L368.256 300.252L368.256 282.14L360 282.14L360 267.42ZM360 302.952L404.8 302.952L404.8 337.32L390.976 337.32L390.976 317.352L388.416 317.352L388.416 336.552L376.576 336.552L376.576 317.352L373.824 317.352L373.824 337.192L360 337.192L360 302.952ZM360 339.547L404.8 339.547L404.8 373.915L390.976 373.915L390.976 353.947L388.416 353.947L388.416 373.147L376.576 373.147L376.576 353.947L373.824 353.947L373.824 373.787L360 373.787L360 339.547ZM386.112 375.502L394.176 375.502C401.92 375.502 405.696 381.902 405.696 395.214C405.696 401.742 404.8 406.926 403.072 410.83L391.36 410.51L391.36 389.838L388.672 389.838L388.224 402.19C387.968 408.91 385.344 412.11 378.688 412.046L369.472 411.982C362.88 411.918 359.36 405.134 359.36 392.59C359.36 385.998 360.32 380.494 362.24 376.014L373.504 376.398L373.504 396.878L376.128 396.878L376.512 385.486C376.768 378.766 379.392 375.502 386.112 375.502Z" fill="#660099"/>
<path d="M602.844 427.206L606.172 427.206L606.172 418.31L602.844 418.31L602.844 427.206ZM614.94 427.27L618.652 427.27L618.652 417.478L614.94 417.478L614.94 427.27ZM633.5 421.638L633.5 441.926L588.7 441.926L588.7 422.47C588.7 407.366 591.068 403.782 601.052 403.782L602.908 403.782C606.172 403.782 608.796 405.254 609.564 407.494C610.396 404.678 613.212 402.95 616.988 402.95L621.148 402.95C631.132 402.95 633.5 406.534 633.5 421.638ZM609.308 387.571L613.02 387.571L613.02 372.723L609.308 372.723L609.308 387.571ZM616.86 401.907L604.956 401.843C594.908 401.779 588.06 396.979 588.06 380.147C588.06 363.315 594.908 358.387 604.956 358.387L616.86 358.387C626.908 358.387 634.012 361.523 634.012 380.147C634.012 398.771 626.908 401.971 616.86 401.907ZM633.5 356.486L588.7 356.486L588.7 345.798L599.196 333.83L588.7 333.83L588.7 319.11L633.5 319.11L633.5 329.798L622.364 341.766L633.5 341.766L633.5 356.486ZM633.5 316.578L588.7 316.578L588.7 301.218L599.516 301.346L599.516 296.738L588.7 294.05L588.7 279.01L610.652 284.386L633.5 278.306L633.5 293.346L623.964 295.906L623.964 301.73L633.5 301.858L633.5 316.578ZM633.5 278.958L610.652 272.878L588.7 278.254L588.7 263.214L596.444 261.294L596.444 257.134L588.7 255.214L588.7 240.174L610.652 245.55L633.5 239.47L633.5 254.51L627.036 256.238L627.036 262.19L633.5 263.918L633.5 278.958ZM652.316 458.021L656.028 458.021L656.028 451.365L652.316 451.365L652.316 458.021ZM681.5 458.021L681.5 474.021L636.7 474.021L636.7 454.373C636.7 439.909 639.708 435.685 650.076 435.685L655.772 435.685C660.764 435.685 664.22 437.285 666.332 441.061L681.5 434.853L681.5 450.981L668.828 455.589L668.828 458.021L681.5 458.021ZM681.5 433.863L636.7 433.863L636.7 399.495L650.524 399.495L650.524 419.463L653.084 419.463L653.084 400.263L664.924 400.263L664.924 419.463L667.676 419.463L667.676 399.623L681.5 399.623L681.5 433.863ZM652.188 381.204L652.188 378.132L636.7 375.956L636.7 360.468L681.5 368.148L681.5 391.188L636.7 398.868L636.7 383.38L652.188 381.204ZM681.5 359.486L636.7 359.486L636.7 325.118L650.524 325.118L650.524 345.086L653.084 345.086L653.084 325.886L664.924 325.886L664.924 345.086L667.676 345.086L667.676 325.246L681.5 325.246L681.5 359.486ZM681.5 322.891L636.7 322.891L636.7 312.203L647.196 300.235L636.7 300.235L636.7 285.515L681.5 285.515L681.5 296.203L670.364 308.171L681.5 308.171L681.5 322.891ZM636.7 245.223L664.86 245.223C677.148 245.223 682.14 250.599 682.14 264.295C682.14 277.927 677.212 283.303 664.86 283.303L636.7 283.303L636.7 268.583L660.316 268.583L660.316 259.943L636.7 259.943L636.7 245.223ZM681.5 243.013L636.7 243.013L636.7 208.645L650.524 208.645L650.524 228.613L653.084 228.613L653.084 209.413L664.924 209.413L664.924 228.613L667.676 228.613L667.676 208.773L681.5 208.773L681.5 243.013Z" fill="#660099"/>
<path d="M905.656 273.216L902.328 273.216L902.328 282.112L905.656 282.112L905.656 273.216ZM893.56 273.152L889.848 273.152L889.848 282.944L893.56 282.944L893.56 273.152ZM875 278.784L875 258.496L919.8 258.496L919.8 277.952C919.8 293.056 917.432 296.64 907.448 296.64L905.592 296.64C902.328 296.64 899.704 295.168 898.936 292.928C898.104 295.744 895.288 297.472 891.512 297.472L887.352 297.472C877.368 297.472 875 293.888 875 278.784ZM899.192 312.851L895.48 312.851L895.48 327.699L899.192 327.699L899.192 312.851ZM891.64 298.515L903.544 298.579C913.592 298.643 920.44 303.443 920.44 320.275C920.44 337.107 913.592 342.035 903.544 342.035L891.64 342.035C881.592 342.035 874.488 338.899 874.488 320.275C874.488 301.651 881.592 298.451 891.64 298.515ZM875 343.936L919.8 343.936L919.8 354.624L909.304 366.592L919.8 366.592L919.8 381.312L875 381.312L875 370.624L886.136 358.656L875 358.656L875 343.936ZM875 383.843L919.8 383.843L919.8 399.203L908.984 399.075L908.984 403.683L919.8 406.371L919.8 421.411L897.848 416.035L875 422.115L875 407.075L884.536 404.515L884.536 398.691L875 398.563L875 383.843ZM857.656 275.185L854.328 275.185L854.328 284.081L857.656 284.081L857.656 275.185ZM845.56 275.121L841.848 275.121L841.848 284.913L845.56 284.913L845.56 275.121ZM827 280.753L827 260.465L871.8 260.465L871.8 279.921C871.8 295.025 869.432 298.609 859.448 298.609L857.592 298.609C854.328 298.609 851.704 297.137 850.936 294.897C850.104 297.713 847.288 299.441 843.512 299.441L839.352 299.441C829.368 299.441 827 295.857 827 280.753ZM871.8 338.82L843.64 338.82C831.352 338.82 826.36 333.444 826.36 319.748C826.36 306.116 831.288 300.74 843.64 300.74L871.8 300.74L871.8 315.46L848.184 315.46L848.184 324.1L871.8 324.1L871.8 338.82ZM856.184 357.03L852.472 357.03L852.472 363.686L856.184 363.686L856.184 357.03ZM827 357.03L827 341.03L871.8 341.03L871.8 360.678C871.8 375.142 868.792 379.366 858.424 379.366L852.728 379.366C847.736 379.366 844.28 377.766 842.168 373.99L827 380.198L827 364.07L839.672 359.462L839.672 357.03L827 357.03ZM827 381.187L871.8 381.187L871.8 391.875L861.304 403.843L871.8 403.843L871.8 418.563L827 418.563L827 407.875L838.136 395.907L827 395.907L827 381.187Z" fill="#660099"/>
<path d="M894.531 488.773C896.389 484.111 898.228 477.47 896.439 472.304C894.72 467.336 893.901 464.803 893.893 464.778C893.825 464.568 893.618 464.423 893.388 464.426C893.158 464.428 892.96 464.577 892.907 464.788C892.455 466.589 891.292 469.558 890.101 469.856C889.566 469.99 888.575 470.13 887.951 469.565C887.449 469.111 886.976 468.013 887.572 465.367C887.866 464.057 888.494 462.717 889.159 461.299C890.079 459.337 891.03 457.307 891.345 454.944C891.707 452.227 891.127 449.57 889.572 446.821C887.399 442.98 884.533 439.314 881.054 435.924C878.105 433.051 877.187 433.543 873.258 430.943C873.08 430.825 872.845 430.824 872.671 430.941C872.497 431.058 872.421 431.267 872.482 431.465C872.504 431.539 872.315 435.718 871.778 438.419C871.096 441.855 869.429 445.832 866.976 445.734C866.065 445.697 865.341 445.31 864.824 444.582C864.115 443.585 864.03 442.256 864.13 441.997C864.25 441.687 864.086 441.436 863.881 441.334C863.484 441.136 863.18 441.389 862.359 442.151C861.836 442.637 861.149 443.314 860.425 444.057C859.097 445.422 857.414 447.252 856.674 448.299C855.284 450.266 852.343 456.641 852.217 459.39C852.109 461.738 850.797 465.213 848.217 465.588C847.87 465.638 847.098 465.507 846.503 464.94C845.745 464.217 845.483 463.005 845.744 461.434C846.374 457.656 847.381 455.651 847.496 455.431C847.583 455.263 847.559 455.062 847.434 454.913C847.31 454.764 847.107 454.695 846.915 454.736C846.863 454.747 841.694 455.876 838.238 459.757C836.144 462.11 835.146 466.868 834.738 469.495C834.153 473.266 834.092 477.064 834.591 478.73C835.659 482.305 837.27 486.945 838.876 488.749C838.959 488.842 839.037 488.931 839.11 489.015C837.542 488.035 835.385 486.728 835.354 486.71C835.186 486.609 834.973 486.608 834.808 486.708C834.643 486.808 834.555 486.99 834.583 487.176C834.591 487.233 834.804 488.605 836.004 490.561C837.068 492.294 845.666 504.103 858.268 506.606C870.869 509.109 874.08 504.92 879.089 503.44C884.156 501.943 886.697 499.23 886.803 499.115C886.944 498.962 886.965 498.739 886.857 498.559C886.75 498.379 886.535 498.28 886.322 498.313C886.309 498.315 885.234 498.471 883.898 498.023C886.319 496.67 892.98 492.667 894.531 488.773L894.531 488.773Z" fill="#FF3C00"/>
<path opacity="0.66" d="M859.455 504.559C849.594 502.601 848.073 495.08 845.869 490.49C843.665 485.901 843.419 484.106 843.579 481.024C843.739 477.941 844.509 475.075 844.759 474.322C845.009 473.57 845.192 472.144 845.192 472.144C845.192 472.144 845.637 472.94 846.016 474.572C846.395 476.205 848.245 480.299 851.068 479.492C853.892 478.684 855.571 478.074 856.313 474.588C857.056 471.103 858.923 466.001 859.993 463.901C861.063 461.802 862.206 460.094 862.206 460.094C862.206 460.094 862.413 461.079 862.604 461.636C862.795 462.193 863.574 462.065 863.966 461.859C864.359 461.654 868.846 457.78 870.144 456.811C871.442 455.842 872.139 455.367 872.54 454.361C872.94 453.356 873.413 451.987 873.325 451.167C873.236 450.348 872.963 448.689 872.963 448.689C872.963 448.689 875.947 451.877 877.152 454.664C878.357 457.451 879.88 460.915 879.885 462.662C879.89 464.408 879.135 467.702 878.729 468.99C878.322 470.277 877.111 473.34 876.656 474.618C876.201 475.895 875.556 477.372 875.403 478.143C875.25 478.915 876.503 480.957 878.207 481.484C879.911 482.011 884.436 482.249 885.558 481.151C886.681 480.053 887.341 479.004 887.341 479.004C887.341 479.004 886.928 485.386 882.942 489.265C878.956 493.145 879.001 492.918 879.001 492.918C879.001 492.918 881.741 493.037 882.806 492.73C882.806 492.73 881.697 495.529 879.219 496.877C876.741 498.225 873.354 500.1 872.922 500.25C872.49 500.4 875.568 500.587 876.779 500.308C877.99 500.03 878.5 499.99 878.5 499.99C878.5 499.99 869.316 506.517 859.455 504.558L859.455 504.559Z" fill="#FFBF35"/>
</svg>
