<svg width="390" height="928" viewBox="0 0 373 928" fill="none" xmlns="http://www.w3.org/2000/svg">
<path d="M373 142C373 197.228 328.228 242 273 242H135V244H273C328.228 244 373 288.772 373 344V386C373 441.228 328.228 486 273 486H135V488H293C337.183 488 373 523.817 373 568V818C373 878.751 323.751 928 263 928H115C60.2032 928 15.7001 883.926 15.0078 829.293L15 828V466C15 410.772 59.7715 366 115 366H253V364H115C59.7715 364 15 319.228 15 264V222C15 166.772 59.7715 122 115 122H253V120H-1V0H273C328.228 0 373 44.7715 373 100V142Z" fill="#FF6633"/>
<path d="M133.32 51.408V53.264H137.128V51.408H133.32ZM133.32 66H125.96V43.6H135.144C142.376 43.6 144.488 45.104 144.488 50.288V53.904C144.488 58.384 141.896 60.432 135.112 60.432H133.32V66ZM156.973 52.976H152.653V55.344H156.973V52.976ZM164.333 51.92V66H156.973V63.664H152.653V66H145.293V51.92C145.293 45.744 147.981 43.28 154.797 43.28C161.645 43.28 164.333 45.776 164.333 51.92ZM172.668 47.44H173.692L174.78 43.6H182.684L176.732 60.304V66H169.372V60.304L163.708 43.6H171.58L172.668 47.44ZM195.853 62.48H193.549L190.829 58.608V66H183.469V43.6H190.189L194.733 49.104L199.373 43.6H206.093V66H198.733V58.384L195.853 62.48ZM207.68 66V43.6H224.864V50.512H214.88V51.792H224.48V57.712H214.88V59.088H224.8V66H207.68ZM226.298 66V43.6H231.642L237.626 48.848V43.6H244.986V66H239.642L233.658 60.432V66H226.298ZM251.691 66V54.16H246.251V43.6H264.491V54.16H259.051V66H251.691Z" fill="#660099"/>
<path d="M158.96 188V165.6H175.76V175.808H166.32V177.088H175.376V183.872H166.32V188H158.96ZM177.046 188V165.6H194.23V172.512H184.246V173.792H193.846V179.712H184.246V181.088H194.166V188H177.046ZM195.664 188V165.6H212.848V172.512H202.864V173.792H212.464V179.712H202.864V181.088H212.784V188H195.664ZM213.961 174.944V170.912C213.961 167.04 217.161 165.152 223.817 165.152C227.081 165.152 229.673 165.6 231.625 166.464L231.465 172.32H221.129V173.664L227.305 173.888C230.665 174.016 232.265 175.328 232.233 178.656L232.201 183.264C232.169 186.56 228.777 188.32 222.505 188.32C219.209 188.32 216.457 187.84 214.217 186.88L214.409 181.248H224.649V179.936L218.953 179.744C215.593 179.616 213.961 178.304 213.961 174.944Z" fill="#660099"/>
<path d="M152.007 280.672V282.336H156.455V280.672H152.007ZM151.975 286.72V288.576H156.871V286.72H151.975ZM154.791 296H144.647V273.6H154.375C161.927 273.6 163.719 274.784 163.719 279.776V280.704C163.719 282.336 162.983 283.648 161.863 284.032C163.271 284.448 164.135 285.856 164.135 287.744V289.824C164.135 294.816 162.343 296 154.791 296ZM172.144 283.904V285.76H179.568V283.904H172.144ZM164.976 287.68L165.008 281.728C165.04 276.704 167.44 273.28 175.856 273.28C184.272 273.28 186.736 276.704 186.736 281.728V287.68C186.736 292.704 185.168 296.256 175.856 296.256C166.544 296.256 164.944 292.704 164.976 287.68ZM188.007 296V273.6H193.351L199.335 278.848V273.6H206.695V296H201.351L195.367 290.432V296H188.007ZM208.281 296V273.6H215.961L215.897 279.008H218.201L219.545 273.6H227.065L224.377 284.576L227.417 296H219.897L218.617 291.232H215.705L215.641 296H208.281ZM227.411 296L230.451 284.576L227.763 273.6H235.283L236.243 277.472H238.323L239.283 273.6H246.803L244.115 284.576L247.155 296H239.635L238.771 292.768H235.795L234.931 296H227.411ZM136.279 305.408V307.264H139.607V305.408H136.279ZM136.279 320H128.279V297.6H138.103C145.335 297.6 147.447 299.104 147.447 304.288V307.136C147.447 309.632 146.647 311.36 144.759 312.416L147.863 320H139.799L137.495 313.664H136.279V320ZM148.678 320V297.6H165.862V304.512H155.878V305.792H165.478V311.712H155.878V313.088H165.798V320H148.678ZM175.328 305.344H176.864L177.952 297.6H185.696L181.856 320H170.336L166.496 297.6H174.24L175.328 305.344ZM186.507 320V297.6H203.691V304.512H193.707V305.792H203.307V311.712H193.707V313.088H203.627V320H186.507ZM205.124 320V297.6H210.468L216.452 302.848V297.6H223.812V320H218.468L212.484 314.432V320H205.124ZM244.278 297.6V311.68C244.278 317.824 241.59 320.32 234.742 320.32C227.926 320.32 225.238 317.856 225.238 311.68V297.6H232.598V309.408H236.918V297.6H244.278ZM245.703 320V297.6H262.887V304.512H252.903V305.792H262.503V311.712H252.903V313.088H262.823V320H245.703Z" fill="#660099"/>
<path d="M138.378 400.672V402.336H142.826V400.672H138.378ZM138.346 406.72V408.576H143.242V406.72H138.346ZM141.162 416H131.018V393.6H140.746C148.298 393.6 150.09 394.784 150.09 399.776V400.704C150.09 402.336 149.354 403.648 148.234 404.032C149.642 404.448 150.506 405.856 150.506 407.744V409.824C150.506 414.816 148.714 416 141.162 416ZM158.516 403.904V405.76H165.94V403.904H158.516ZM151.348 407.68L151.38 401.728C151.412 396.704 153.812 393.28 162.228 393.28C170.644 393.28 173.108 396.704 173.108 401.728V407.68C173.108 412.704 171.54 416.256 162.228 416.256C152.916 416.256 151.316 412.704 151.348 407.68ZM174.378 416V393.6H179.722L185.706 398.848V393.6H193.066V416H187.722L181.738 410.432V416H174.378ZM194.652 416V393.6H202.332L202.268 399.008H204.572L205.916 393.6H213.436L210.748 404.576L213.788 416H206.268L204.988 411.232H202.076L202.012 416H194.652ZM139.363 424.672V426.336H143.811V424.672H139.363ZM139.33 430.72V432.576H144.227V430.72H139.33ZM142.146 440H132.002V417.6H141.731C149.283 417.6 151.075 418.784 151.075 423.776V424.704C151.075 426.336 150.339 427.648 149.219 428.032C150.627 428.448 151.491 429.856 151.491 431.744V433.824C151.491 438.816 149.698 440 142.146 440ZM171.5 417.6V431.68C171.5 437.824 168.812 440.32 161.964 440.32C155.148 440.32 152.46 437.856 152.46 431.68V417.6H159.82V429.408H164.14V417.6H171.5ZM180.925 425.408V427.264H184.253V425.408H180.925ZM180.925 440H172.925V417.6H182.749C189.981 417.6 192.093 419.104 192.093 424.288V427.136C192.093 429.632 191.293 431.36 189.405 432.416L192.509 440H184.445L182.141 433.664H180.925V440ZM193.324 440V417.6H198.668L204.652 422.848V417.6H212.012V440H206.668L200.684 434.432V440H193.324Z" fill="#660099"/>
<path d="M260.036 432.588C261.218 429.621 262.389 425.395 261.25 422.107C260.156 418.945 259.635 417.333 259.63 417.317C259.587 417.183 259.455 417.091 259.308 417.093C259.162 417.094 259.036 417.189 259.003 417.323C258.714 418.469 257.974 420.359 257.216 420.549C256.876 420.634 256.245 420.723 255.848 420.364C255.529 420.074 255.228 419.376 255.607 417.692C255.794 416.858 256.194 416.005 256.617 415.103C257.202 413.854 257.808 412.562 258.008 411.058C258.239 409.329 257.869 407.638 256.88 405.888C255.497 403.444 253.673 401.11 251.459 398.953C249.582 397.124 248.997 397.437 246.497 395.783C246.383 395.707 246.234 395.707 246.123 395.781C246.012 395.856 245.964 395.989 246.003 396.115C246.017 396.162 245.896 398.822 245.555 400.541C245.121 402.727 244.06 405.259 242.499 405.197C241.919 405.173 241.458 404.927 241.129 404.463C240.678 403.829 240.623 402.983 240.687 402.818C240.764 402.621 240.659 402.461 240.529 402.396C240.276 402.27 240.083 402.431 239.56 402.916C239.227 403.226 238.79 403.656 238.33 404.129C237.484 404.998 236.413 406.163 235.942 406.829C235.057 408.08 233.186 412.138 233.105 413.888C233.037 415.382 232.201 417.594 230.56 417.832C230.339 417.864 229.848 417.781 229.469 417.42C228.986 416.96 228.82 416.188 228.986 415.188C229.386 412.784 230.028 411.508 230.101 411.368C230.156 411.261 230.141 411.133 230.061 411.038C229.982 410.944 229.853 410.9 229.731 410.925C229.698 410.932 226.408 411.651 224.209 414.121C222.876 415.619 222.241 418.647 221.981 420.319C221.609 422.719 221.57 425.136 221.887 426.196C222.567 428.472 223.593 431.425 224.614 432.573C224.667 432.632 224.717 432.689 224.764 432.743C223.765 432.118 222.393 431.287 222.373 431.275C222.266 431.211 222.13 431.211 222.025 431.274C221.92 431.337 221.864 431.453 221.882 431.572C221.887 431.608 222.023 432.481 222.787 433.726C223.464 434.829 228.936 442.345 236.956 443.938C244.977 445.531 247.02 442.865 250.208 441.923C253.433 440.97 255.05 439.244 255.117 439.17C255.207 439.073 255.221 438.931 255.152 438.816C255.083 438.702 254.947 438.639 254.811 438.66C254.803 438.661 254.119 438.76 253.268 438.475C254.809 437.614 259.048 435.066 260.036 432.588L260.036 432.588Z" fill="#FF3C00"/>
<path opacity="0.66" d="M237.712 442.635C231.436 441.389 230.467 436.602 229.065 433.681C227.663 430.76 227.506 429.618 227.607 427.656C227.709 425.694 228.199 423.87 228.359 423.391C228.518 422.912 228.634 422.004 228.634 422.004C228.634 422.004 228.917 422.511 229.159 423.55C229.4 424.589 230.577 427.195 232.374 426.681C234.171 426.167 235.24 425.779 235.712 423.56C236.185 421.342 237.373 418.095 238.054 416.759C238.735 415.423 239.463 414.336 239.463 414.336C239.463 414.336 239.594 414.963 239.716 415.317C239.837 415.671 240.333 415.59 240.583 415.459C240.833 415.328 243.689 412.863 244.515 412.246C245.341 411.629 245.784 411.327 246.039 410.687C246.294 410.047 246.595 409.176 246.539 408.654C246.482 408.133 246.309 407.077 246.309 407.077C246.309 407.077 248.208 409.106 248.975 410.88C249.742 412.654 250.711 414.858 250.714 415.97C250.717 417.081 250.237 419.178 249.978 419.997C249.72 420.817 248.949 422.766 248.659 423.579C248.37 424.392 247.959 425.332 247.862 425.823C247.764 426.314 248.562 427.613 249.646 427.949C250.731 428.284 253.611 428.436 254.325 427.737C255.04 427.038 255.46 426.371 255.46 426.371C255.46 426.371 255.197 430.433 252.66 432.902C250.123 435.371 250.151 435.226 250.151 435.226C250.151 435.226 251.895 435.302 252.573 435.106C252.573 435.106 251.868 436.888 250.29 437.746C248.713 438.604 246.557 439.797 246.282 439.893C246.008 439.988 247.967 440.107 248.737 439.93C249.508 439.752 249.833 439.727 249.833 439.727C249.833 439.727 243.987 443.881 237.711 442.635L237.712 442.635Z" fill="#FFBF35"/>
</svg>
